<svg width="23" height="22" viewBox="0 0 23 22" fill="none" xmlns="http://www.w3.org/2000/svg">
<g clip-path="url(#clip0_190_2510)">
<path d="M19.2617 3.66659V17.1608C19.2618 17.2498 19.236 17.3368 19.1875 17.4114C19.139 17.4859 19.0699 17.5447 18.9885 17.5807L11.0117 21.1108L3.03488 17.5816C2.95323 17.5455 2.88389 17.4864 2.83537 17.4115C2.78684 17.3366 2.76124 17.2492 2.76171 17.1599V3.66659H0.928375V1.83325H21.095V3.66659H19.2617ZM4.59504 3.66659V16.2662L11.0117 19.1078L17.4284 16.2662V3.66659H4.59504ZM7.34504 7.33325H14.6784V9.16658H7.34504V7.33325ZM7.34504 10.9999H14.6784V12.8333H7.34504V10.9999Z" fill="#566879"/>
</g>
<defs>
<clipPath id="clip0_190_2510">
<rect width="22" height="22" fill="white" transform="translate(0.0117188)"/>
</clipPath>
</defs>
</svg>
