<svg width="28" height="28" viewBox="0 0 28 28" fill="none" xmlns="http://www.w3.org/2000/svg">
<path fill-rule="evenodd" clip-rule="evenodd" d="M7.63567 9.22044C7.62896 9.2228 7.56826 9.24194 7.50079 9.26296L7.37812 9.3012L7.36353 9.46177C7.3555 9.55009 7.34572 9.63418 7.34179 9.64864C7.33612 9.66946 7.27075 9.7013 7.02719 9.8019C6.73634 9.92202 6.62423 9.96598 5.93209 10.2314C5.36543 10.4486 4.88697 10.6455 4.34452 10.8846C4.25385 10.9246 4.09448 10.9941 3.99037 11.0392C3.88627 11.0842 3.68019 11.1823 3.53242 11.2572C3.14398 11.4541 3.0752 11.4739 2.66925 11.5061C2.53705 11.5166 2.3612 11.5393 2.27846 11.5565C1.84918 11.6457 1.42721 11.6854 0.705524 11.7046L0.601917 11.7073L0.537865 11.8015C0.466156 11.907 0.399783 12.0339 0.400491 12.0642C0.400748 12.0752 0.422388 12.0994 0.448583 12.118C0.525897 12.173 0.545424 12.2951 0.492619 12.3934C0.413204 12.5412 0.387815 12.7224 0.387815 13.1412V13.4454L0.332605 13.4861C0.172859 13.6041 0.0588346 13.8698 0.020562 14.2131C0.00399026 14.3617 0.0118548 14.7306 0.0346181 14.8724C0.0455113 14.9403 0.0452792 14.9801 0.0336045 15.0473C0.0195729 15.1281 0.0212948 15.1508 0.0578943 15.3676C0.0795585 15.496 0.0994031 15.6123 0.101992 15.6261C0.104581 15.6399 0.137578 15.6738 0.175313 15.7015C0.277247 15.7761 0.491386 16.0096 0.529231 16.0873C0.580119 16.1919 0.61474 16.2311 0.69849 16.2793C0.954846 16.4267 1.44946 16.5295 2.299 16.6118C2.60468 16.6414 3.20461 16.6828 3.50067 16.6948L3.71315 16.7034L3.70489 16.6483C3.67194 16.4287 3.68533 16.0749 3.7357 15.8334C3.92141 14.943 4.5657 14.25 5.42307 14.0185C5.68201 13.9485 6.06259 13.9278 6.33185 13.9689C6.63437 14.0151 6.95461 14.1342 7.20197 14.2925C7.83069 14.6948 8.22992 15.3567 8.30184 16.116C8.32331 16.3427 8.29536 16.792 8.24623 17.0099C8.23618 17.0545 8.22796 17.0939 8.22796 17.0975C8.22796 17.1047 15.892 17.0933 19.0214 17.0814L21.0283 17.0737L21.0208 17.047C20.945 16.7737 20.9168 16.5774 20.9168 16.3232C20.9168 15.6968 21.1405 15.1258 21.5633 14.6732C21.9182 14.2934 22.3938 14.0434 22.9069 13.9672C23.1168 13.9361 23.4955 13.9477 23.6913 13.9914C24.0363 14.0684 24.336 14.2085 24.6138 14.4226C25.0337 14.7462 25.3404 15.218 25.4655 15.7329C25.561 16.1255 25.5553 16.6061 25.4511 16.9686C25.4446 16.9912 25.4508 16.9919 25.583 16.9838C26.2253 16.9442 26.6737 16.8826 26.8362 16.8115C26.9784 16.7493 27.1685 16.4772 27.1687 16.3358C27.1687 16.3047 27.1553 16.1395 27.1388 15.9686C27.111 15.6795 27.1101 15.6512 27.1269 15.5613C27.1999 15.1686 27.2338 14.8171 27.2339 14.4517C27.234 14.0251 27.1977 13.8323 27.084 13.6576C26.9131 13.3947 26.6109 13.2113 26.027 13.0161C25.4248 12.8148 25.0489 12.7197 23.9815 12.4985C23.1825 12.3329 22.3628 12.204 21.6673 12.1347C21.2113 12.0892 20.9434 12.0767 20.1714 12.0651C19.7314 12.0585 19.3404 12.0478 19.3024 12.0412C19.2159 12.0263 19.1564 11.9953 19.0173 11.8925C18.9111 11.814 18.7865 11.7362 18.2541 11.4156C17.8289 11.1597 17.5885 11.0213 16.9046 10.639C16.5801 10.4576 15.7057 10.004 15.5369 9.92946C15.266 9.80986 15.0218 9.72942 14.6088 9.62371C14.0484 9.48027 13.4554 9.39888 12.5205 9.33706C12.191 9.31526 10.5958 9.3153 10.1575 9.33709C9.66202 9.36175 9.04078 9.39976 8.6561 9.42896C8.38894 9.44924 8.29838 9.45212 8.26376 9.44146C8.23901 9.43382 8.15901 9.39011 8.08597 9.3443C7.91687 9.23826 7.85091 9.21385 7.73673 9.21513C7.68787 9.21568 7.64239 9.21806 7.63567 9.22044ZM11.5799 9.83273C11.5918 9.88664 11.6711 10.3911 11.7453 10.8846C11.8212 11.3899 11.9348 12.1099 11.9472 12.1645L11.954 12.1947L11.5351 12.1863C11.3046 12.1817 10.7919 12.1724 10.3956 12.1656C8.31801 12.13 7.52702 12.0962 6.98843 12.0199C6.74588 11.9856 6.66186 11.9578 6.55651 11.877C6.20117 11.6044 6.0816 11.2493 6.22251 10.8851C6.25746 10.7947 6.25604 10.7963 6.37783 10.7107C6.503 10.6227 6.60082 10.5699 6.79821 10.4835C7.27569 10.2745 7.94491 10.1005 8.6798 9.99404C9.46603 9.8802 10.4026 9.81367 11.3204 9.80646L11.5736 9.80447L11.5799 9.83273ZM12.606 9.8359C12.934 9.84725 13.1107 9.86268 13.3973 9.905C14.1676 10.0187 14.8595 10.1675 15.2631 10.3063C15.5379 10.4007 15.9436 10.6111 16.4223 10.9074C16.8174 11.152 17.3015 11.4849 17.3015 11.5119C17.3015 11.5173 17.2739 11.5251 17.2401 11.5292C17.1549 11.5396 17.0395 11.5957 16.9941 11.649C16.9731 11.6735 16.9417 11.725 16.9242 11.7633C16.8965 11.8242 16.8927 11.848 16.8941 11.9523C16.8951 12.0272 16.903 12.092 16.9154 12.1265C16.9263 12.1568 16.9352 12.1865 16.9352 12.1925C16.9352 12.1988 16.1085 12.2022 15.0107 12.2004L13.0862 12.1972L13.0392 12.0653C12.7173 11.1607 12.5178 10.5457 12.369 9.99858C12.3229 9.82944 12.3221 9.81461 12.3587 9.82242C12.3738 9.82565 12.4851 9.83171 12.606 9.8359ZM5.76112 14.0511C5.11887 14.1256 4.56312 14.4631 4.178 15.0125C4.08091 15.151 3.9431 15.4331 3.88744 15.6073C3.74255 16.0607 3.74263 16.5875 3.88763 17.0391C3.94365 17.2136 4.08073 17.4938 4.18257 17.642C4.28783 17.7952 4.56032 18.0758 4.71088 18.186C4.84629 18.2852 5.14538 18.4405 5.30404 18.4941C6.02974 18.7391 6.83474 18.5797 7.42113 18.0749C7.92903 17.6376 8.21575 17.0056 8.21575 16.3232C8.21575 15.7945 8.04954 15.3083 7.72581 14.8897C7.63461 14.7718 7.46586 14.601 7.35008 14.5094C6.90986 14.161 6.30875 13.9876 5.76112 14.0511ZM22.9923 14.0511C21.9947 14.1665 21.2058 14.9293 21.0388 15.9401C20.9758 16.3213 21.0037 16.6822 21.1251 17.058C21.2873 17.5602 21.6359 18.004 22.0886 18.2849C22.2137 18.3624 22.2424 18.377 22.3962 18.4405C23.1351 18.746 23.9572 18.6276 24.5938 18.1242C25.0506 17.763 25.3673 17.1812 25.4342 16.5802C25.5628 15.4259 24.8156 14.3482 23.7114 14.0953C23.4735 14.0409 23.2173 14.0251 22.9923 14.0511ZM6.23739 14.7089C6.41279 14.7366 6.52177 14.7718 6.68362 14.853C7.0093 15.0164 7.25187 15.2607 7.41136 15.5861C7.53318 15.8345 7.58072 16.0415 7.58072 16.3232C7.58072 16.6107 7.53161 16.8191 7.40352 17.0752C7.12297 17.6363 6.55221 17.9777 5.9382 17.9518C5.51987 17.9342 5.16746 17.7755 4.87575 17.4733C4.73462 17.3271 4.64562 17.1996 4.57038 17.0358C4.45117 16.7763 4.41388 16.6065 4.41388 16.3232C4.41388 16.0953 4.42858 15.9987 4.49322 15.802C4.6817 15.2284 5.16973 14.8039 5.74891 14.7097C5.88891 14.6869 6.09634 14.6866 6.23739 14.7089ZM23.5663 14.7266C23.8409 14.7927 24.0612 14.9079 24.2768 15.0979C24.6097 15.3913 24.8119 15.8545 24.8119 16.3232C24.8119 17.2528 24.0637 17.9916 23.1633 17.9512C22.7565 17.9329 22.4193 17.7854 22.127 17.4978C21.9853 17.3583 21.8928 17.2267 21.8013 17.0342C21.6424 16.7004 21.6003 16.353 21.6738 15.9825C21.7346 15.6753 21.8749 15.413 22.1068 15.1729C22.3478 14.9235 22.6163 14.7765 22.9435 14.7149C23.1114 14.6832 23.4097 14.6889 23.5663 14.7266ZM5.62068 14.9805C5.53944 15.0038 5.29319 15.1218 5.24303 15.1614C5.22057 15.1791 5.22332 15.184 5.30409 15.271C5.52173 15.5053 5.70171 15.6826 5.72186 15.6826C5.77106 15.6826 5.77333 15.6659 5.77333 15.3033V14.9541L5.73975 14.955C5.72129 14.9555 5.6677 14.967 5.62068 14.9805ZM6.22518 15.3019C6.22518 15.6617 6.22784 15.6826 6.27353 15.6826C6.28401 15.6826 6.40191 15.5701 6.53554 15.4325L6.7785 15.1824L6.71249 15.1391C6.58541 15.0557 6.39869 14.9781 6.28212 14.9601L6.22518 14.9513V15.3019ZM22.8519 14.9805C22.7666 15.005 22.5223 15.1228 22.4702 15.1646L22.4427 15.1867L22.6857 15.4363C22.9054 15.6621 22.9317 15.6852 22.9605 15.6778L22.9923 15.6696V15.3119V14.9541L22.9649 14.955C22.9498 14.9555 22.8989 14.967 22.8519 14.9805ZM23.4564 15.3119V15.6696L23.4883 15.6778C23.5171 15.6853 23.5434 15.6622 23.7649 15.4343L24.0096 15.1826L23.9498 15.1435C23.8526 15.08 23.7214 15.0194 23.6083 14.9857C23.439 14.9352 23.4564 14.8979 23.4564 15.3119ZM4.83585 15.6026C4.75735 15.7413 4.66204 15.997 4.66204 16.0688C4.66204 16.0817 4.73329 16.0843 5.01174 16.0816C5.35426 16.0783 5.36164 16.0777 5.37091 16.0519C5.37901 16.0294 5.34426 15.9885 5.13254 15.7709L4.8847 15.5162L4.83585 15.6026ZM6.85626 15.7683C6.63498 15.9961 6.61511 16.0202 6.62262 16.0509L6.63083 16.0846H6.98388H7.33694L7.32968 16.05C7.31315 15.9715 7.27192 15.8385 7.24357 15.7722C7.20749 15.6879 7.11526 15.5194 7.10521 15.5194C7.10131 15.5194 6.98928 15.6314 6.85626 15.7683ZM22.0715 15.5928C22.0026 15.7093 21.9468 15.8417 21.9187 15.9548C21.9047 16.0112 21.8933 16.0636 21.8933 16.0712C21.8933 16.0809 21.9951 16.084 22.243 16.0816C22.5855 16.0783 22.5929 16.0777 22.6021 16.0519C22.6102 16.0294 22.5755 15.9885 22.364 15.7712L22.1164 15.5167L22.0715 15.5928ZM24.0876 15.768C23.8662 15.9961 23.8463 16.0202 23.8538 16.0509L23.862 16.0846H24.2088C24.6103 16.0846 24.574 16.1029 24.5242 15.9258C24.4908 15.8073 24.4029 15.6113 24.3572 15.5535L24.3296 15.5186L24.0876 15.768ZM5.95506 15.7706C5.94419 15.7772 5.92827 15.8 5.91967 15.8213C5.9059 15.8555 5.90692 15.864 5.92844 15.8938C5.97824 15.9627 6.07864 15.9313 6.07864 15.8468C6.07864 15.7854 6.00553 15.7403 5.95506 15.7706ZM23.1689 15.7888C23.1322 15.8265 23.131 15.8573 23.1642 15.9007C23.1812 15.923 23.2012 15.9338 23.2253 15.9338C23.3044 15.9338 23.3393 15.8339 23.2777 15.784C23.2354 15.7498 23.2055 15.7512 23.1689 15.7888ZM5.9437 16.1262C5.81338 16.1709 5.76214 16.3002 5.82572 16.4239C5.85939 16.4894 5.92132 16.5263 5.99755 16.5263C6.08706 16.5263 6.14608 16.4837 6.18315 16.3925C6.24408 16.2425 6.09336 16.0749 5.9437 16.1262ZM23.173 16.1217C23.01 16.1742 22.9756 16.3998 23.116 16.4953C23.1991 16.5519 23.3216 16.5326 23.382 16.4536C23.4818 16.3232 23.4102 16.1432 23.2484 16.1177C23.2251 16.1141 23.1912 16.1159 23.173 16.1217ZM5.48024 16.2604C5.44774 16.2938 5.44883 16.3532 5.48255 16.3855C5.52675 16.4279 5.5802 16.4171 5.60889 16.3601C5.65193 16.2744 5.54623 16.1925 5.48024 16.2604ZM6.40171 16.2661C6.38522 16.2831 6.37172 16.3088 6.37172 16.3232C6.37172 16.3561 6.42388 16.4111 6.45501 16.4111C6.49393 16.4111 6.54269 16.3629 6.54269 16.3245C6.54269 16.2833 6.49763 16.2353 6.45892 16.2353C6.44393 16.2353 6.41819 16.2492 6.40171 16.2661ZM22.7199 16.2492C22.6841 16.2707 22.6722 16.3192 22.6927 16.3601C22.7214 16.4171 22.7749 16.4279 22.8191 16.3855C22.892 16.3156 22.8062 16.1976 22.7199 16.2492ZM23.6295 16.2644C23.5931 16.3042 23.5953 16.3529 23.6351 16.3851C23.6528 16.3994 23.6778 16.4111 23.6906 16.4111C23.7218 16.4111 23.7739 16.3561 23.7739 16.3232C23.7739 16.2878 23.7208 16.2353 23.685 16.2353C23.6691 16.2353 23.6441 16.2484 23.6295 16.2644ZM4.66931 16.609C4.69232 16.7382 4.78491 16.9677 4.85974 17.0809L4.88939 17.1258L5.13488 16.8721C5.35387 16.6457 5.3792 16.6153 5.36964 16.5901L5.35891 16.5619H5.00992H4.66093L4.66931 16.609ZM6.62818 16.5734C6.62818 16.5797 6.62487 16.5938 6.62083 16.6046C6.61564 16.6185 6.68423 16.6966 6.85348 16.8694C6.98549 17.0042 7.09831 17.1145 7.10419 17.1145C7.11847 17.1145 7.19444 16.9847 7.23793 16.8861C7.27001 16.8133 7.31181 16.6813 7.32968 16.5964L7.33694 16.5619H6.98256C6.77549 16.5619 6.62818 16.5667 6.62818 16.5734ZM21.8991 16.6087C21.9247 16.7495 22.0279 17.0029 22.0985 17.0988L22.1193 17.1271L22.3655 16.8728C22.585 16.6458 22.6104 16.6153 22.6009 16.5901L22.5901 16.5619H22.2403H21.8905L21.8991 16.6087ZM23.8538 16.5955C23.8463 16.6262 23.8658 16.6499 24.0814 16.8718C24.211 17.0053 24.3236 17.1145 24.3316 17.1145C24.3664 17.1145 24.4771 16.8863 24.5258 16.7143C24.5738 16.5446 24.6096 16.5619 24.2088 16.5619H23.862L23.8538 16.5955ZM5.93298 16.7457C5.9037 16.784 5.90301 16.7888 5.92122 16.8299C5.95887 16.9149 6.07864 16.8868 6.07864 16.793C6.07864 16.7147 5.98091 16.683 5.93298 16.7457ZM23.1642 16.7457C23.1246 16.7974 23.133 16.8405 23.1885 16.87C23.2718 16.9143 23.3514 16.8056 23.2854 16.7377C23.2503 16.7015 23.1952 16.7052 23.1642 16.7457ZM5.45875 17.2057C5.32952 17.3387 5.22379 17.4536 5.22379 17.4609C5.22379 17.4761 5.37045 17.5646 5.46193 17.6046C5.53531 17.6367 5.71805 17.6923 5.75028 17.6923C5.77233 17.6923 5.77333 17.677 5.77333 17.341C5.77333 17.0066 5.7722 16.9892 5.74972 16.9768C5.73672 16.9696 5.71881 16.9638 5.7099 16.9638C5.701 16.9638 5.58799 17.0726 5.45875 17.2057ZM6.24045 16.9721C6.22873 16.977 6.22518 17.0616 6.22518 17.3353C6.22518 17.7444 6.21128 17.7085 6.35418 17.6678C6.4714 17.6344 6.61973 17.5686 6.70638 17.5115L6.7785 17.464L6.53554 17.2139C6.30744 16.9791 6.27926 16.956 6.24045 16.9721ZM22.69 17.2057C22.5607 17.3387 22.455 17.4534 22.455 17.4605C22.455 17.4765 22.557 17.5405 22.6626 17.5906C22.7389 17.6268 22.9402 17.6923 22.9754 17.6923C22.9894 17.6923 22.9923 17.6315 22.9923 17.3356C22.9923 16.9601 22.9929 16.9638 22.9393 16.9638C22.9314 16.9638 22.8192 17.0726 22.69 17.2057ZM23.4717 16.9721C23.46 16.977 23.4564 17.0618 23.4564 17.3365V17.6945L23.5083 17.6855C23.633 17.6639 23.8707 17.5635 23.9711 17.49L24.0084 17.4627L23.7661 17.2132C23.5386 16.979 23.5105 16.956 23.4717 16.9721Z" fill="#566879"/>
</svg>
