<svg width="28" height="28" viewBox="0 0 28 28" fill="none" xmlns="http://www.w3.org/2000/svg">
<path fill-rule="evenodd" clip-rule="evenodd" d="M14.2256 7.9944C15.175 8.00961 17.1546 8.08456 17.6464 8.12393C18.1601 8.165 18.5469 8.26348 18.8893 8.4403C19.1395 8.56955 20.2828 9.34556 20.9945 9.86922C21.488 10.2323 21.4967 10.2388 22.2424 10.7915C23.4631 11.6963 23.453 11.6899 24.1809 11.9997C26.0066 12.7767 26.7218 13.2295 27.021 13.7984C27.1921 14.1234 27.2331 14.3475 27.2336 14.9593C27.234 15.477 27.2388 15.5135 27.3056 15.5135C27.345 15.5135 27.3863 15.5378 27.3974 15.5676C27.4085 15.5973 27.4296 15.9097 27.4444 16.2617C27.4852 17.2342 27.4452 17.3367 26.8962 17.6677C26.4451 17.9396 25.859 18.0819 24.9328 18.1443L24.5596 18.1695L24.5408 17.668C24.5258 17.2661 24.5027 17.108 24.4244 16.8712C24.2117 16.2279 23.8425 15.7891 23.2823 15.514C22.8581 15.3056 22.5259 15.227 22.0722 15.2278C21.7529 15.2284 21.65 15.2452 21.4105 15.3366C20.8014 15.569 20.286 16.0875 20.0165 16.7388C19.8892 17.0464 19.7844 17.5262 19.7844 17.8012V18.0538L18.1489 18.0277C11.8467 17.9273 7.6747 17.8463 7.63912 17.8237C7.62195 17.8127 7.60777 17.7129 7.60762 17.6019C7.6072 17.2982 7.47186 16.7776 7.31372 16.4717C7.12177 16.1002 6.7238 15.6934 6.35998 15.4968C5.09884 14.8151 3.50586 15.247 2.88879 16.4379C2.75251 16.7008 2.61626 17.1947 2.61626 17.4257V17.575H2.26102C1.49174 17.575 0.419945 17.4012 0.30007 17.257C0.249397 17.1961 0.233892 17.1069 0.233892 16.8765C0.233892 16.6056 0.242023 16.5719 0.315649 16.5381L0.397406 16.5006L0.402966 14.1887C0.409658 11.3991 0.449631 10.9294 0.801086 9.509C1.1193 8.22299 1.13965 8.17441 1.39089 8.10078C1.70597 8.00848 4.22833 7.96667 8.93142 7.97585C11.5208 7.98091 13.9032 7.98923 14.2256 7.9944ZM15.7647 8.70378C15.7142 8.72354 15.6612 8.77088 15.647 8.80892C15.6021 8.92934 15.7733 10.8506 15.8406 10.9822C15.9636 11.2222 16.4285 11.6067 16.849 11.8161C16.9684 11.8755 17.2543 11.9258 17.9714 12.0134C18.5006 12.078 18.986 12.1407 19.0502 12.1528C19.1461 12.1708 19.1779 12.1571 19.23 12.0754C19.3198 11.9344 19.9064 11.1824 19.9533 11.1481C20.0196 11.0996 20.1793 11.1153 20.2676 11.1789C20.4259 11.2929 20.3812 11.4411 20.068 11.8416C19.912 12.0411 19.7844 12.2118 19.7844 12.2209C19.7844 12.2301 19.9589 12.2584 20.172 12.2839C20.3852 12.3095 20.5872 12.3381 20.6209 12.3477C20.6743 12.3628 20.6853 12.2987 20.7066 11.8486C20.72 11.5646 20.7413 11.1285 20.7539 10.8795L20.7768 10.4268L20.4224 10.1537C19.9462 9.7868 19.5298 9.52985 18.8958 9.21161C18.154 8.83934 18.0794 8.81763 17.1184 8.69414C16.8733 8.66263 15.8513 8.66991 15.7647 8.70378ZM24.0576 12.6115C24.0576 12.6198 24.2158 12.791 24.4091 12.9918C24.6025 13.1926 24.8817 13.5315 25.0297 13.7448C25.1777 13.9582 25.3226 14.1651 25.3516 14.2046C25.3919 14.2594 25.5162 14.2933 25.8767 14.3474C26.1365 14.3864 26.4541 14.4547 26.5824 14.4992C26.9066 14.6115 26.9081 14.611 26.8798 14.3984C26.8494 14.1702 26.694 13.8167 26.5607 13.6724C26.1486 13.2264 25.0923 12.752 24.2277 12.6247C24.1653 12.6155 24.1015 12.6054 24.0859 12.6022C24.0703 12.599 24.0576 12.6032 24.0576 12.6115ZM22.2802 15.7363C23.1613 15.8024 23.9164 16.4493 24.1128 17.3064C24.3276 18.2439 23.8887 19.216 23.0638 19.6298C22.5697 19.8775 22.2088 19.9244 21.7015 19.8067C20.7821 19.5934 20.1606 18.7787 20.1635 17.7905C20.1647 17.4028 20.2093 17.1978 20.3619 16.8787C20.7123 16.1468 21.4997 15.6778 22.2802 15.7363ZM5.3837 15.7514C6.19605 15.8591 6.89302 16.5174 7.06183 17.3365C7.20818 18.0467 7.03313 18.6897 6.54826 19.2228C6.26752 19.5315 5.84119 19.7647 5.42443 19.8377C4.50169 19.9992 3.55998 19.4355 3.21911 18.5177C3.11493 18.2372 3.07738 17.6377 3.14515 17.3365C3.37873 16.2982 4.34533 15.6138 5.3837 15.7514ZM21.6563 16.7681C21.2563 16.9793 21.0533 17.3288 21.052 17.8084C21.0514 18.0359 21.0705 18.1404 21.1387 18.2828C21.2513 18.5179 21.4534 18.719 21.7041 18.8455C21.8818 18.9353 21.937 18.9442 22.2181 18.9291C22.5777 18.9096 22.7842 18.8122 22.999 18.5606C23.2156 18.3068 23.2744 18.1167 23.2563 17.7278C23.2418 17.4156 23.2291 17.3694 23.1063 17.1791C22.9637 16.9582 22.7539 16.7855 22.5185 16.6953C22.2984 16.6109 21.8884 16.6455 21.6563 16.7681ZM4.74632 16.6997C4.50491 16.7734 4.23271 17.0169 4.09926 17.2785C4.0121 17.4493 3.99758 17.525 3.9975 17.8084C3.99743 18.0764 4.0135 18.1701 4.08232 18.3033C4.35561 18.8322 4.9495 19.0681 5.51151 18.8712C5.76144 18.7836 6.06018 18.4763 6.14534 18.2192C6.45694 17.2786 5.66542 16.4189 4.74632 16.6997ZM22.2991 17.5017C22.4929 17.6147 22.535 17.8869 22.3818 18.035C22.1589 18.2504 21.78 18.0368 21.845 17.7323C21.8883 17.5296 22.1335 17.405 22.2991 17.5017ZM5.25142 17.4975C5.43358 17.573 5.47306 17.8684 5.32176 18.0241C5.11763 18.234 4.77173 18.0737 4.77173 17.7691C4.77173 17.7232 4.82146 17.6346 4.88227 17.572C4.99454 17.4565 5.1008 17.4351 5.25142 17.4975Z" fill="#566879"/>
</svg>
