<svg width="152" height="26" viewBox="0 0 152 26" fill="none" xmlns="http://www.w3.org/2000/svg">
<path fill-rule="evenodd" clip-rule="evenodd" d="M15.2665 0.141045C10.7297 0.537705 6.71948 2.27894 3.9085 5.0726C2.16787 6.8026 1.16059 8.58677 0.714908 10.7293C0.451995 11.9934 0.462085 12.0688 0.894578 12.0688C1.09363 12.0688 4.69243 11.7379 8.89204 11.3336C13.0917 10.9293 20.8103 10.1881 26.0444 9.68656C38.3718 8.50533 37.7837 8.57825 35.0452 8.57121C33.8155 8.56803 27.1416 8.6764 20.2145 8.81203C13.2873 8.94765 7.60109 9.02876 7.57839 8.99229C7.47623 8.82827 9.31112 6.92175 10.4199 6.04006C13.187 3.83923 16.3107 2.7257 19.7382 2.71843C22.646 2.71218 25.3474 3.39748 28.4029 4.91653C29.5773 5.50039 31.5125 6.62619 31.8825 6.94072C32.0991 7.12486 32.0991 7.1219 31.8825 6.73456C31.539 6.12026 29.4664 4.1148 28.4523 3.41531C26.051 1.75915 23.047 0.629487 20.0822 0.267585C18.7034 0.0992433 16.4277 0.0394943 15.2665 0.141045ZM38.5423 8.60427L37.6823 8.74898C36.8469 8.88949 20.5345 11.8021 7.41237 14.1537C1.35941 15.2383 0.936543 15.3292 0.971285 15.5375C0.991694 15.6602 1.25461 16.2717 1.55559 16.8964C4.92346 23.889 14.8798 27.0992 23.9361 24.1124C28.0785 22.7464 31.1686 20.24 32.8224 16.9047C33.4382 15.6627 33.4605 15.434 32.9143 15.9596C32.0299 16.8108 29.933 17.6838 28.054 17.9833C26.8557 18.1743 24.4695 18.1214 23.2921 17.8776C22.2257 17.6569 20.5778 17.0674 20.5199 16.8859C20.4961 16.8111 36.5596 9.57774 38.9111 8.60427C39.1315 8.51305 38.9344 8.57121 38.5423 8.60427ZM22.0314 14.6336C20.2656 15.4175 17.8793 16.4724 16.7284 16.9779C15.5776 17.4833 14.6359 17.9314 14.6359 17.9734C14.6359 18.0816 16.7363 19.0477 17.5597 19.3184C17.9381 19.4427 18.7894 19.6629 19.4516 19.8076C21.1447 20.1778 24.0886 20.1824 25.9363 19.8176C27.4045 19.5278 29.0849 18.9982 30.0288 18.5279C30.3915 18.3472 30.6881 18.2487 30.6881 18.3088C30.6881 18.369 30.295 18.7219 29.8145 19.0932C27.3119 21.0264 24.1528 22.0962 20.4835 22.2528C16.3053 22.4313 13.0253 21.4184 10.2037 19.0785C9.39963 18.4117 8.55895 17.5154 8.55895 17.325C8.55895 17.2721 9.78431 16.9325 11.2821 16.5705C12.7799 16.2084 16.4561 15.3069 19.4516 14.5671C22.447 13.8274 24.9752 13.219 25.0698 13.2153C25.1644 13.2115 23.7971 13.8498 22.0314 14.6336Z" fill="#E31E24"/>
<path fill-rule="evenodd" clip-rule="evenodd" d="M43.2522 5.84856C42.907 6.00475 42.7152 6.18195 42.6081 6.44378C42.483 6.74968 41.7231 14.2684 41.4309 18.0905L41.3594 19.0276H43.134H44.9085L45.1041 16.9546C45.2116 15.8145 45.328 14.6912 45.3626 14.4585L45.4255 14.0355L51.3152 14.0042C55.5626 13.9816 57.2417 13.9364 57.3366 13.8422C57.4091 13.7704 57.5132 13.2848 57.5678 12.7631C57.6225 12.2415 57.6937 11.5974 57.7261 11.3318L57.7852 10.8491H51.738H45.6907L45.7586 10.0823C45.8736 8.7833 45.1446 8.91802 52.0598 8.91802H58.1153L58.1766 8.60565C58.2103 8.43378 58.2715 7.85504 58.3123 7.31934C58.3831 6.39062 58.3733 6.33008 58.0981 6.01304L57.8095 5.68068L50.7767 5.65341C44.0062 5.62717 43.7255 5.63444 43.2522 5.84856ZM84.4454 5.83629C84.1692 5.96068 83.9219 6.17593 83.8284 6.37335C83.5863 6.88463 82.6381 17.9543 82.7955 18.4309C83.0417 19.1761 82.644 19.1412 90.8919 19.1412H98.3744L98.4268 18.8856C98.4557 18.7451 98.5096 18.2723 98.5468 17.8349C98.5838 17.3976 98.6453 16.797 98.6832 16.5002L98.7524 15.9607H92.722C85.7891 15.9607 86.409 16.0785 86.531 14.7841L86.6015 14.0355L92.4994 14.0042C99.2282 13.9684 98.6406 14.0728 98.7655 12.8918C98.8051 12.518 98.8699 11.9055 98.9096 11.5306L98.9817 10.8491H92.9319H86.8821L86.9394 10.0556C86.9709 9.61922 87.0612 9.18519 87.1401 9.09102C87.2638 8.94335 88.1081 8.91598 93.3183 8.89065L99.3534 8.86123L99.4543 7.70646C99.5787 6.28157 99.5247 6.04405 99.022 5.80778C98.6749 5.64455 97.8585 5.62411 91.7686 5.62638C85.3718 5.62865 84.8751 5.64296 84.4454 5.83629ZM60.265 5.99305C60.2368 6.13356 60.1575 6.91314 60.0887 7.72532C59.7668 11.5247 59.164 18.2194 59.1092 18.6017L59.048 19.0276H60.9413C62.3805 19.0276 62.8341 18.9936 62.8326 18.8856C62.8314 18.8076 63.0719 15.9485 63.3668 12.5322C63.8745 6.64949 63.8927 6.3052 63.7101 6.02906C63.5182 5.73906 63.5085 5.73747 61.9168 5.73747C60.3487 5.73747 60.3154 5.7427 60.265 5.99305ZM65.9949 6.33382C65.9068 7.12317 64.8984 18.698 64.8984 18.9197C64.8984 18.9833 65.6508 19.0276 66.7329 19.0276C68.4759 19.0276 68.5675 19.0166 68.5675 18.8059C68.5675 18.4552 68.9063 14.6942 68.9748 14.2852L69.0366 13.916H71.9843H74.9321L75.8581 16.5002L76.7842 19.0844L78.9247 19.1153C80.1021 19.1324 81.0653 19.1165 81.0653 19.0801C81.0653 19.0438 80.6783 17.9094 80.2054 16.5593C79.7324 15.2092 79.3454 14.0702 79.3454 14.0283C79.3454 13.9863 79.5648 13.8871 79.8327 13.8076C80.8398 13.5091 81.2946 12.9349 81.5064 11.6949C81.5698 11.3234 81.7097 9.96022 81.8174 8.66562C81.9997 6.47354 82 6.29191 81.8232 6.02463L81.6333 5.73747H73.8474H66.0615L65.9949 6.33382ZM101.912 5.85526C101.348 5.98873 101.297 6.26487 100.737 12.2122C100.446 15.3047 100.179 18.0247 100.144 18.2568C100.091 18.6067 100.13 18.7283 100.374 18.97C100.664 19.2572 100.69 19.261 102.186 19.2297L103.703 19.198L104.182 13.9531C104.445 11.0684 104.68 8.64927 104.704 8.57736C104.728 8.50546 105.494 9.96499 106.406 11.8206C108.248 15.5703 108.361 15.7174 108.913 15.1045C109.08 14.9194 110.267 13.3468 111.55 11.6098C112.834 9.87276 113.898 8.46707 113.916 8.48604C113.933 8.505 113.723 10.7951 113.448 13.5753C113.173 16.3554 112.946 18.7707 112.944 18.9424L112.94 19.2548H114.832C116.717 19.2548 116.724 19.2539 116.727 18.9992C116.728 18.8586 116.981 16.0404 117.289 12.7364C117.875 6.44003 117.879 6.21194 117.392 5.95409C117.254 5.88048 116.261 5.83925 114.807 5.84652C112.875 5.85617 112.394 5.89082 112.149 6.03769C111.985 6.13629 111.211 7.05649 110.429 8.08245C109.647 9.10829 108.95 9.93216 108.881 9.91319C108.812 9.89423 108.309 8.98527 107.764 7.89332L106.773 5.90786L104.471 5.85106C103.206 5.81982 102.054 5.82176 101.912 5.85526ZM125.923 6.04985C125.57 6.34961 117.778 18.3059 117.668 18.7158C117.542 19.1862 117.8 19.2549 119.691 19.2532L121.483 19.2517L122.264 18.0037L123.045 16.7558H126.107H129.17L129.76 18.0053L130.349 19.2548H132.194C133.208 19.2548 134.038 19.236 134.038 19.2128C134.038 19.1897 133.696 18.4613 133.279 17.5941C131.877 14.6803 131.379 13.6402 130.597 11.985C128.274 7.07001 127.765 6.10108 127.405 5.91683C126.869 5.64205 126.347 5.68897 125.923 6.04985ZM135.946 5.87946C135.994 5.95761 137.109 7.36546 138.423 9.00799C139.738 10.6506 140.839 12.0605 140.87 12.1412C140.902 12.2241 139.656 13.6141 137.998 15.3453C136.387 17.027 135.038 18.5185 134.999 18.6599C134.849 19.2117 135.034 19.2555 137.463 19.2458L139.713 19.237L141.548 17.3226C142.557 16.2698 143.419 15.4048 143.464 15.4006C143.508 15.3962 144.273 16.3128 145.163 17.4374L146.781 19.482H149.133H151.485L151.275 19.2049C151.159 19.0526 149.994 17.5929 148.685 15.9612C146.855 13.6789 146.306 12.9203 146.306 12.6729C146.306 12.4113 146.82 11.7966 149.058 9.37943C150.572 7.74497 151.81 6.31815 151.81 6.20887C151.81 5.7778 151.603 5.73747 149.392 5.73747H147.25L145.44 7.6792C143.688 9.55822 143.623 9.61354 143.448 9.38954C143.349 9.2622 142.649 8.39119 141.892 7.45372L140.516 5.7494L138.187 5.74349C136.353 5.73872 135.877 5.76757 135.946 5.87946ZM77.4702 8.97664C77.5791 9.25789 77.3936 10.3811 77.2078 10.5652C77.0619 10.7097 76.4553 10.7355 73.1929 10.7355H69.3499L69.4113 10.3095C69.445 10.0753 69.5042 9.64069 69.543 9.34399L69.6135 8.80443H73.5085C76.8834 8.80443 77.4123 8.82738 77.4702 8.97664ZM127.336 12.9054C127.752 13.7261 127.808 13.9064 127.661 13.9623C127.445 14.0444 124.865 14.053 124.865 13.9716C124.865 13.8124 126.163 11.8623 126.331 11.7692C126.615 11.6117 126.768 11.7846 127.336 12.9054Z" fill="black"/>
</svg>
