<svg width="19" height="20" viewBox="0 0 19 20" fill="none" xmlns="http://www.w3.org/2000/svg">
<path fill-rule="evenodd" clip-rule="evenodd" d="M0 15.235C0.157815 15.4078 0.424928 15.4409 0.630594 15.3071L1.36361 14.8301C1.52529 14.7249 1.58866 14.5266 1.53572 14.3484L0 15.235ZM2.63637 13.7129C3.79807 15.6497 5.91815 16.9459 8.34098 16.9459C12.0122 16.9459 14.9883 13.9698 14.9883 10.2986C14.9883 9.12493 14.6841 8.02233 14.1504 7.0653L2.63637 13.7129ZM15.2512 6.42971C15.3796 6.56407 15.583 6.60836 15.7545 6.52081L16.5334 6.12314C16.7504 6.01231 16.8544 5.76575 16.7858 5.5437L15.2512 6.42971ZM16.2459 10.2986C16.2459 10.5272 16.4204 10.7219 16.6487 10.7337L17.5235 10.7788C17.8029 10.7932 18.0425 10.5783 18.0425 10.2986C18.0425 10.0188 17.8029 9.8039 17.5235 9.81831L16.6487 9.86343C16.4204 9.87521 16.2459 10.0699 16.2459 10.2986ZM3.80944 17.2759C3.93413 17.0843 4.18953 17.0308 4.3874 17.1453C4.58526 17.2598 4.66717 17.5084 4.56322 17.712L4.16556 18.4909C4.03796 18.7409 3.73043 18.8408 3.48755 18.7003C3.24467 18.5597 3.1794 18.2442 3.33245 18.009L3.80944 17.2759ZM7.90584 18.6063C7.91762 18.3779 8.11233 18.2035 8.34098 18.2035C8.56962 18.2035 8.76434 18.3779 8.77612 18.6063L8.82123 19.4811C8.83564 19.7605 8.62075 20.0001 8.34098 20.0001C8.06121 20.0001 7.84632 19.7605 7.86072 19.4811L7.90584 18.6063ZM12.1187 17.712C12.0148 17.5084 12.0967 17.2598 12.2946 17.1453C12.4924 17.0308 12.7478 17.0843 12.8725 17.2759L13.3495 18.009C13.5026 18.2442 13.4373 18.5597 13.1944 18.7003C12.9515 18.8408 12.644 18.7409 12.5164 18.4909L12.1187 17.712ZM15.3183 14.8301C15.1267 14.7054 15.0732 14.45 15.1877 14.2521C15.3022 14.0543 15.5509 13.9724 15.7545 14.0763L16.5334 14.474C16.7833 14.6016 16.8832 14.9091 16.7427 15.152C16.6021 15.3949 16.2866 15.4601 16.0514 15.3071L15.3183 14.8301Z" fill="#FFD400"/>
<path fill-rule="evenodd" clip-rule="evenodd" d="M8.31555 0C7.93075 0 7.61881 0.316904 7.61881 0.707825V3.03979L6.56008 2.08372C6.2745 1.82583 5.83426 1.84926 5.57678 2.13606C5.31929 2.42287 5.34207 2.86443 5.62765 3.12232L7.61881 4.92042V8.25419L4.90141 6.68071L4.30565 3.86964C4.22559 3.49189 3.85556 3.25071 3.47917 3.33095C3.10277 3.41119 2.86255 3.78246 2.9426 4.16021L3.2775 5.7404L1.07257 4.46365C0.74146 4.27192 0.317067 4.38744 0.124666 4.72166C-0.067735 5.05589 0.0447142 5.48226 0.375828 5.67399L2.4152 6.85486L1.03856 7.30347C0.672343 7.42281 0.471863 7.8171 0.590773 8.18414C0.709684 8.55118 1.10296 8.75198 1.46917 8.63264L4.03911 7.79517L6.97409 9.49465L4.18807 11.1079L1.43972 10.2123C1.0735 10.0929 0.680233 10.2937 0.561323 10.6608C0.442412 11.0278 0.642893 11.4221 1.00911 11.5414L2.56416 12.0482L0.345143 13.3331C0.0521523 13.5027 -0.0696274 13.8561 0.0395152 14.1668L16.4468 4.69407C16.2356 4.42879 15.8587 4.35007 15.5585 4.5239L13.5191 5.70482L13.8201 4.28468C13.9001 3.90694 13.6599 3.53566 13.2835 3.45542C12.9071 3.37518 12.5371 3.61636 12.457 3.99411L11.8952 6.64513L9.0123 8.31444V5.14467L11.1608 3.20446C11.4464 2.94657 11.4692 2.50501 11.2117 2.21821C10.9542 1.93141 10.514 1.90797 10.2284 2.16586L9.0123 3.26405V0.707825C9.0123 0.316904 8.70036 0 8.31555 0Z" fill="#64D2FF"/>
</svg>
