<svg width="20" height="20" viewBox="0 0 20 20" fill="none" xmlns="http://www.w3.org/2000/svg">
<g clip-path="url(#clip0_85_3034)">
<path d="M14.1667 2.49992H17.5001C17.7211 2.49992 17.9331 2.58772 18.0893 2.744C18.2456 2.90028 18.3334 3.11224 18.3334 3.33325V16.6666C18.3334 16.8876 18.2456 17.0996 18.0893 17.2558C17.9331 17.4121 17.7211 17.4999 17.5001 17.4999H2.50008C2.27907 17.4999 2.06711 17.4121 1.91083 17.2558C1.75455 17.0996 1.66675 16.8876 1.66675 16.6666V3.33325C1.66675 3.11224 1.75455 2.90028 1.91083 2.744C2.06711 2.58772 2.27907 2.49992 2.50008 2.49992H5.83342V0.833252H7.50008V2.49992H12.5001V0.833252H14.1667V2.49992ZM16.6667 9.16658H3.33341V15.8333H16.6667V9.16658ZM12.5001 4.16659H7.50008V5.83325H5.83342V4.16659H3.33341V7.49992H16.6667V4.16659H14.1667V5.83325H12.5001V4.16659ZM5.00008 10.8333H6.66675V12.4999H5.00008V10.8333ZM9.16675 10.8333H10.8334V12.4999H9.16675V10.8333ZM13.3334 10.8333H15.0001V12.4999H13.3334V10.8333Z" fill="#566879"/>
</g>
<defs>
<clipPath id="clip0_85_3034">
<rect width="20" height="20" fill="white"/>
</clipPath>
</defs>
</svg>
