<svg width="23" height="22" viewBox="0 0 23 22" fill="none" xmlns="http://www.w3.org/2000/svg">
<path fill-rule="evenodd" clip-rule="evenodd" d="M9.87347 0.0229437C9.80236 0.0401823 9.45328 0.100776 9.09773 0.157663C8.14737 0.30988 6.92688 0.7199 5.97401 1.20715C2.987 2.7344 0.900609 5.48551 0.166331 8.86488C-0.0554436 9.88566 -0.0554436 12.1468 0.166331 13.1676C1.01818 17.0877 3.75161 20.2067 7.42326 21.4478C8.7321 21.8902 9.44216 22 10.994 22C13.0083 22 14.36 21.6773 16.104 20.7802C16.8698 20.3863 17.1137 20.1306 17.1137 19.7217C17.1137 19.2824 16.6924 18.8598 16.2544 18.8598C16.1655 18.8598 15.6534 19.0736 15.1164 19.3348C14.5793 19.5962 13.7522 19.9127 13.2781 20.0383C12.5119 20.2413 12.2581 20.2667 10.994 20.2667C9.73358 20.2667 9.47595 20.2411 8.72909 20.0417C7.76864 19.7853 6.52427 19.2226 5.74078 18.6905C5.0321 18.2092 4.10707 17.3283 3.57388 16.6268C2.97208 15.8351 2.24746 14.3291 1.97328 13.3004C1.76849 12.5322 1.74349 12.2837 1.74349 11.0163C1.74349 9.74879 1.76849 9.50029 1.97328 8.73214C2.24746 7.70343 2.97208 6.19738 3.57388 5.40569C4.10707 4.70417 5.0321 3.82328 5.74078 3.34198C6.52427 2.80991 7.76864 2.24724 8.72909 1.99082C9.47595 1.79136 9.73358 1.76577 10.994 1.76577C12.2544 1.76577 12.512 1.79136 13.2589 1.99082C14.8087 2.40463 16.2459 3.1995 17.3819 4.27114C18.2148 5.05687 18.7664 5.81313 19.3155 6.92209C20.024 8.35298 20.2394 9.2761 20.2507 10.9301C20.2637 12.8514 19.9501 14.0571 19.0119 15.6934C18.5009 16.5846 18.4678 16.8657 18.8309 17.2288C19.0296 17.4275 19.1596 17.4807 19.4456 17.4807C19.915 17.4807 20.1985 17.1884 20.7517 16.1349C22.9901 11.8712 22.1923 6.62938 18.7866 3.22363C17.2795 1.71655 15.3386 0.665426 13.1919 0.193778C12.6452 0.0736251 10.1871 -0.0529061 9.87347 0.0229437ZM10.2057 3.44377C7.27449 3.71355 4.66578 5.8258 3.75153 8.66948C2.4663 12.6671 4.66793 16.9794 8.6472 18.2587C12.6448 19.5439 16.9572 17.3423 18.2364 13.363C19.5198 9.371 17.3197 5.05308 13.3522 3.77751C12.9189 3.63822 12.2983 3.50152 11.9731 3.47377C11.6479 3.44601 11.2849 3.41248 11.1664 3.39929C11.0478 3.38602 10.6156 3.40602 10.2057 3.44377ZM9.88011 5.66565C10.1308 5.91639 10.132 5.92259 10.132 6.962C10.132 8.34289 9.94329 8.74722 9.14212 9.08191C8.72211 9.2574 8.42715 9.21413 7.3681 8.82178C6.44135 8.47847 6.25337 8.30557 6.25337 7.79634C6.25337 7.46433 6.29991 7.39477 6.93283 6.78194C7.423 6.30736 7.8101 6.02499 8.32191 5.76883C9.19039 5.33416 9.52637 5.31192 9.88011 5.66565ZM13.666 5.76883C14.1779 6.02499 14.565 6.30736 15.0551 6.78194C15.688 7.39477 15.7346 7.46433 15.7346 7.79634C15.7346 8.30557 15.5466 8.47847 14.6199 8.82178C13.5608 9.21413 13.2659 9.2574 12.8458 9.08191C12.0447 8.74722 11.8559 8.34289 11.8559 6.962C11.8559 5.92259 11.8571 5.91639 12.1079 5.66565C12.4616 5.31192 12.7976 5.33416 13.666 5.76883ZM6.98601 10.5201C7.91982 10.8599 8.19331 11.0447 8.39457 11.472C8.6372 11.9873 8.69073 12.3315 8.58738 12.7113C8.49705 13.0431 7.57867 14.4132 7.31138 14.6148C7.09435 14.7785 6.56495 14.7459 6.32068 14.5538C5.77577 14.1252 5.13286 12.3832 5.13286 11.3355C5.13286 10.6433 5.22129 10.4406 5.59218 10.2821C5.90222 10.1496 6.02547 10.1706 6.98601 10.5201ZM11.4124 10.2772C11.9942 10.578 11.9768 11.5052 11.3843 11.7752C10.6015 12.1319 9.84037 11.3381 10.2524 10.5948C10.4784 10.1869 10.975 10.051 11.4124 10.2772ZM16.3769 10.2763C16.7666 10.4392 16.8551 10.6352 16.8551 11.3355C16.8551 12.3832 16.2122 14.1252 15.6673 14.5538C15.423 14.7459 14.8936 14.7785 14.6766 14.6148C14.4093 14.4132 13.4909 13.0431 13.4006 12.7113C13.2397 12.12 13.5646 11.2324 14.0525 10.9309C14.2683 10.7975 15.8983 10.1687 16.0606 10.1562C16.0739 10.1552 16.2163 10.2092 16.3769 10.2763ZM11.6488 13.7662C11.9125 13.886 12.1333 14.1095 12.5199 14.6478C12.8049 15.0445 13.0858 15.4604 13.1444 15.572C13.2788 15.8284 13.1972 16.2896 12.9834 16.4832C12.4025 17.0089 9.58541 17.0089 9.00456 16.4832C8.79072 16.2896 8.70918 15.8284 8.84355 15.572C8.90216 15.4604 9.18307 15.0445 9.46802 14.6478C10.0265 13.8703 10.4137 13.6058 10.994 13.6058C11.1599 13.6058 11.4546 13.678 11.6488 13.7662Z" fill="black"/>
</svg>
