<svg width="25" height="25" viewBox="0 0 25 25" fill="none" xmlns="http://www.w3.org/2000/svg">
<path fill-rule="evenodd" clip-rule="evenodd" d="M21.8662 12.9906C21.6087 12.9773 21.412 12.7578 21.412 12.5C21.412 12.2422 21.6087 12.0227 21.8662 12.0094L22.8525 11.9586C23.1675 11.9423 23.4375 12.1846 23.4375 12.5C23.4375 12.8154 23.1675 13.0577 22.8525 13.0414L21.8662 12.9906ZM20.219 8.04271C20.3481 8.26579 20.6284 8.35813 20.858 8.24094L21.7361 7.79261C22.0179 7.64875 22.1306 7.30205 21.9721 7.02822C21.8137 6.7544 21.4579 6.68081 21.1927 6.85336L20.3663 7.39112C20.1503 7.5317 20.0899 7.81964 20.219 8.04271ZM16.9573 4.78097C17.1804 4.91006 17.4683 4.8497 17.6089 4.63368L18.1466 3.80728C18.3192 3.54211 18.2456 3.18634 17.9718 3.02788C17.698 2.86942 17.3512 2.9821 17.2074 3.26387L16.7591 4.14201C16.6419 4.37156 16.7342 4.65188 16.9573 4.78097ZM12.5 3.58796C12.7578 3.58796 12.9773 3.39127 12.9906 3.13384L13.0414 2.14754C13.0577 1.83254 12.8154 1.5625 12.5 1.5625C12.1846 1.5625 11.9423 1.83254 11.9586 2.14754L12.0094 3.13384C12.0227 3.39127 12.2422 3.58796 12.5 3.58796ZM8.04271 4.78097C8.26578 4.65188 8.35813 4.37156 8.24094 4.14201L7.79261 3.26387C7.64875 2.9821 7.30205 2.86942 7.02822 3.02788C6.7544 3.18634 6.68081 3.54211 6.85336 3.80728L7.39112 4.63368C7.5317 4.8497 7.81964 4.91006 8.04271 4.78097ZM4.78097 8.04271C4.91006 7.81964 4.8497 7.5317 4.63368 7.39113L3.80728 6.85336C3.54211 6.68081 3.18634 6.7544 3.02788 7.02822C2.86942 7.30205 2.9821 7.64875 3.26387 7.79261L4.14201 8.24094C4.37156 8.35813 4.65188 8.26579 4.78097 8.04271ZM3.13384 12.0094C3.39127 12.0227 3.58796 12.2422 3.58796 12.5C3.58796 12.7578 3.39127 12.9773 3.13384 12.9906L2.14754 13.0414C1.83254 13.0577 1.5625 12.8154 1.5625 12.5C1.5625 12.1846 1.83254 11.9423 2.14754 11.9586L3.13384 12.0094ZM4.78097 16.9573C4.65188 16.7342 4.37156 16.6419 4.14201 16.7591L3.26387 17.2074C2.9821 17.3512 2.86942 17.698 3.02788 17.9718C3.18634 18.2456 3.54211 18.3192 3.80728 18.1466L4.63368 17.6089C4.8497 17.4683 4.91006 17.1804 4.78097 16.9573ZM8.04271 20.219C7.81964 20.0899 7.5317 20.1503 7.39113 20.3663L6.85336 21.1927C6.68081 21.4579 6.7544 21.8137 7.02822 21.9721C7.30205 22.1306 7.64875 22.0179 7.79261 21.7361L8.24094 20.858C8.35813 20.6284 8.26578 20.3481 8.04271 20.219ZM12.5 21.412C12.2422 21.412 12.0227 21.6087 12.0094 21.8662L11.9586 22.8525C11.9423 23.1675 12.1846 23.4375 12.5 23.4375C12.8154 23.4375 13.0577 23.1675 13.0414 22.8525L12.9906 21.8662C12.9773 21.6087 12.7578 21.412 12.5 21.412ZM16.9573 20.219C16.7342 20.3481 16.6419 20.6284 16.7591 20.858L17.2074 21.7361C17.3512 22.0179 17.698 22.1306 17.9718 21.9721C18.2456 21.8137 18.3192 21.4579 18.1466 21.1927L17.6089 20.3663C17.4683 20.1503 17.1804 20.0899 16.9573 20.219ZM20.219 16.9573C20.0899 17.1804 20.1503 17.4683 20.3663 17.6089L21.1927 18.1466C21.4579 18.3192 21.8137 18.2456 21.9721 17.9718C22.1306 17.698 22.0179 17.3512 21.7361 17.2074L20.858 16.7591C20.6284 16.6419 20.3481 16.7342 20.219 16.9573Z" fill="#FFD400"/>
<path d="M19.9923 12.4999C19.9923 16.6389 16.6371 19.9942 12.4981 19.9942C8.35918 19.9942 5.00391 16.6389 5.00391 12.4999C5.00391 8.36101 8.35918 5.00574 12.4981 5.00574C16.6371 5.00574 19.9923 8.36101 19.9923 12.4999Z" fill="#FFD400"/>
</svg>
