<svg width="26" height="26" viewBox="0 0 26 26" fill="none" xmlns="http://www.w3.org/2000/svg">
<path d="M11.722 0.968247C11.722 0.433499 12.1487 0 12.675 0C13.2014 0 13.6281 0.433498 13.6281 0.968246V4.46495L15.2917 2.96272C15.6823 2.60995 16.2845 2.64201 16.6367 3.03433C16.9889 3.42665 16.9578 4.03067 16.5671 4.38344L13.6281 7.03749V11.3735L17.5717 9.08999L18.3402 5.46361C18.4498 4.94689 18.9559 4.61697 19.4708 4.72673C19.9857 4.83649 20.3143 5.34436 20.2048 5.86109L19.7931 7.80372L22.5829 6.18832C23.0358 5.92605 23.6163 6.08407 23.8795 6.54126C24.1427 6.99845 23.9889 7.58169 23.5359 7.84396L20.5197 9.59049L22.6153 10.2734C23.1163 10.4366 23.3905 10.976 23.2278 11.4781C23.0652 11.9801 22.5272 12.2548 22.0263 12.0916L18.2983 10.8768L14.6524 12.9879L18.586 15.2656L22.07 14.1302C22.571 13.967 23.1089 14.2417 23.2716 14.7438C23.4342 15.2458 23.16 15.7852 22.6591 15.9484L20.8073 16.5519L23.5779 18.1561C24.0309 18.4184 24.1847 19.0017 23.9215 19.4588C23.6583 19.916 23.0778 20.0741 22.6248 19.8118L19.5895 18.0542L20.0545 20.2482C20.164 20.7649 19.8354 21.2728 19.3205 21.3826C18.8056 21.4923 18.2995 21.1624 18.1899 20.6457L17.3681 16.7679L13.6281 14.6023V19.247L16.3765 21.7289C16.7672 22.0816 16.7983 22.6857 16.4461 23.078C16.0939 23.4703 15.4917 23.5024 15.101 23.1496L13.6281 21.8195V25.0318C13.6281 25.5665 13.2014 26 12.675 26C12.1487 26 11.722 25.5665 11.722 25.0318V21.5573L10.0831 23.0373C9.69241 23.3901 9.0902 23.358 8.73798 22.9657C8.38577 22.5734 8.41692 21.9694 8.80758 21.6166L11.722 18.9848V14.6847L7.7171 17.0037L6.95548 20.5973C6.84597 21.1141 6.3398 21.444 5.82492 21.3342C5.31005 21.2245 4.98144 20.7166 5.09095 20.1999L5.49572 18.29L2.72527 19.8942C2.27233 20.1565 1.6918 19.9984 1.42861 19.5413C1.16542 19.0841 1.31924 18.5008 1.77218 18.2386L4.80761 16.4809L2.68042 15.7877C2.17947 15.6245 1.90523 15.0851 2.06789 14.583C2.23055 14.081 2.76851 13.8063 3.26947 13.9695L7.02899 15.1946L10.84 12.9879L6.82521 10.6632L3.30975 11.8087C2.8088 11.972 2.27084 11.6973 2.10818 11.1952C1.94552 10.6931 2.21976 10.1538 2.72071 9.99055L4.60384 9.37689L1.81415 7.76154C1.36121 7.49927 1.20739 6.91604 1.47058 6.45885C1.73377 6.00165 2.31431 5.84364 2.76724 6.10591L5.7834 7.85239L5.32529 5.69083C5.21578 5.1741 5.54439 4.66623 6.05926 4.55647C6.57414 4.44671 7.0803 4.77662 7.18982 5.29335L8.00477 9.13865L11.722 11.2911V6.73072L8.99821 4.27107C8.60756 3.9183 8.5764 3.31428 8.92862 2.92196C9.28083 2.52964 9.88304 2.49758 10.2737 2.85035L11.722 4.15819V0.968247Z" fill="#64D2FF"/>
</svg>
