<svg width="44" height="16" viewBox="0 0 44 16" fill="none" xmlns="http://www.w3.org/2000/svg">
<path fill-rule="evenodd" clip-rule="evenodd" d="M12.3228 0.762712C12.3119 0.766493 12.2138 0.79714 12.1048 0.830804L11.9065 0.892018L11.8829 1.1491C11.87 1.29052 11.8541 1.42515 11.8478 1.4483C11.8386 1.48164 11.733 1.53262 11.3393 1.69368C10.8692 1.88601 10.688 1.95639 9.56925 2.38129C8.65334 2.72915 7.88 3.04435 7.00323 3.42715C6.85667 3.49113 6.59908 3.6025 6.4308 3.67464C6.26253 3.74677 5.92944 3.90387 5.6906 4.02376C5.06276 4.33895 4.95159 4.3707 4.29543 4.42228C4.08176 4.43909 3.79753 4.47535 3.6638 4.5029C2.96994 4.64576 2.28789 4.70937 1.12142 4.74004L0.953953 4.74444L0.850424 4.89526C0.734518 5.06411 0.627239 5.26726 0.628384 5.31576C0.628798 5.33334 0.663775 5.37213 0.706114 5.40197C0.83108 5.48997 0.862642 5.68556 0.777292 5.84292C0.648932 6.07955 0.607895 6.36962 0.607895 7.04022V7.52716L0.518656 7.59244C0.260455 7.78135 0.0761546 8.20667 0.0142936 8.75635C-0.0124918 8.99433 0.000219952 9.58484 0.0370128 9.81202C0.0546197 9.92071 0.0542447 9.98434 0.0353745 10.0919C0.0126948 10.2213 0.0154779 10.2577 0.0746348 10.6048C0.109651 10.8103 0.141727 10.9966 0.145911 11.0187C0.150096 11.0408 0.20343 11.0951 0.264422 11.1394C0.429181 11.2589 0.775299 11.6327 0.836469 11.7572C0.91872 11.9245 0.974679 11.9874 1.11005 12.0645C1.5244 12.3006 2.32386 12.4651 3.697 12.5968C4.19108 12.6442 5.16076 12.7106 5.63928 12.7298L5.98272 12.7435L5.96937 12.6553C5.91612 12.3036 5.93775 11.7373 6.01917 11.3505C6.31934 9.92502 7.36071 8.81552 8.74651 8.44475C9.16504 8.33278 9.78018 8.29954 10.2154 8.36538C10.7044 8.43934 11.222 8.63 11.6218 8.88345C12.638 9.52757 13.2833 10.5873 13.3995 11.803C13.4342 12.166 13.3891 12.8854 13.3097 13.2342C13.2934 13.3056 13.2801 13.3687 13.2801 13.3744C13.2801 13.3861 25.6677 13.3678 30.7258 13.3487L33.9696 13.3364L33.9576 13.2937C33.835 12.8561 33.7894 12.5418 33.7894 12.1348C33.7894 11.1319 34.1511 10.2176 34.8344 9.49306C35.408 8.88486 36.1767 8.48473 37.006 8.36272C37.3454 8.31279 37.9574 8.33149 38.2739 8.40147C38.8315 8.52475 39.316 8.74905 39.765 9.09185C40.4436 9.60986 40.9393 10.3653 41.1417 11.1896C41.2959 11.8182 41.2868 12.5877 41.1183 13.1682C41.1078 13.2043 41.1179 13.2055 41.3315 13.1924C42.3697 13.1291 43.0945 13.0304 43.3571 12.9166C43.5869 12.817 43.8943 12.3814 43.8945 12.1549C43.8946 12.1051 43.8729 11.8406 43.8463 11.567C43.8013 11.1042 43.7999 11.0589 43.827 10.9149C43.945 10.2861 43.9998 9.72344 44 9.13844C44.0002 8.45531 43.9414 8.14668 43.7577 7.86698C43.4814 7.44602 42.993 7.15241 42.0492 6.83991C41.0759 6.51758 40.4683 6.36527 38.743 6.01108C37.4515 5.74597 36.1267 5.53966 35.0025 5.42862C34.2654 5.3558 33.8324 5.33587 32.5845 5.31731C31.8735 5.30673 31.2414 5.2895 31.18 5.27902C31.0403 5.25517 30.9441 5.20544 30.7192 5.04088C30.5475 4.91519 30.3462 4.79057 29.4856 4.27735C28.7984 3.86755 28.4098 3.64602 27.3045 3.034C26.7799 2.74353 25.3666 2.01726 25.0937 1.89791C24.6559 1.70643 24.2612 1.57764 23.5936 1.40838C22.6879 1.17872 21.7294 1.04841 20.2183 0.949432C19.6857 0.914541 17.1073 0.914602 16.3988 0.949492C15.598 0.988968 14.5939 1.04982 13.9721 1.09658C13.5403 1.12905 13.394 1.13366 13.338 1.11658C13.298 1.10436 13.1687 1.03438 13.0506 0.961035C12.7773 0.791248 12.6707 0.752175 12.4861 0.754226C12.4072 0.755091 12.3337 0.758911 12.3228 0.762712ZM18.6979 1.74305C18.7172 1.82936 18.8454 2.63697 18.9653 3.42725C19.088 4.23622 19.2716 5.38904 19.2916 5.47646L19.3027 5.52474L18.6255 5.51131C18.253 5.50391 17.4243 5.48897 16.7837 5.47811C13.4257 5.42112 12.1472 5.36698 11.2766 5.24489C10.8846 5.18991 10.7488 5.14539 10.5785 5.016C10.0042 4.5796 9.81091 4.01109 10.0387 3.42793C10.0952 3.2833 10.0929 3.28585 10.2897 3.14878C10.492 3.00792 10.6501 2.92325 10.9692 2.78496C11.7409 2.45041 12.8226 2.17169 14.0105 2.00132C15.2813 1.81904 16.7951 1.71252 18.2786 1.70098L18.6878 1.6978L18.6979 1.74305ZM20.3564 1.74811C20.8866 1.76629 21.1723 1.79099 21.6355 1.85876C22.8806 2.04087 23.9989 2.27911 24.6513 2.50119C25.0954 2.65237 25.7511 2.98923 26.5248 3.46366C27.1634 3.85528 27.946 4.38823 27.946 4.43155C27.946 4.44018 27.9013 4.45263 27.8467 4.45922C27.709 4.47585 27.5225 4.56576 27.449 4.65099C27.4151 4.69032 27.3643 4.77267 27.3361 4.83401C27.2913 4.93148 27.2851 4.96961 27.2874 5.13658C27.289 5.25664 27.3018 5.36032 27.3219 5.41563C27.3395 5.46401 27.3538 5.51155 27.3538 5.52126C27.3538 5.53132 26.0177 5.53671 24.2432 5.53381L21.1326 5.52872L21.0567 5.31757C20.5363 3.86916 20.214 2.88458 19.9733 2.00858C19.899 1.73778 19.8976 1.71403 19.9567 1.72654C19.9811 1.7317 20.161 1.74142 20.3564 1.74811ZM9.29291 8.49704C8.25482 8.61633 7.35655 9.15664 6.73407 10.0362C6.57715 10.2579 6.3544 10.7096 6.26443 10.9885C6.03025 11.7145 6.03037 12.5579 6.26474 13.2811C6.35528 13.5604 6.57685 14.0091 6.74145 14.2463C6.9116 14.4916 7.35203 14.9408 7.59539 15.1173C7.81425 15.276 8.29767 15.5247 8.55411 15.6105C9.72708 16.0028 11.0282 15.7476 11.976 14.9394C12.797 14.2393 13.2604 13.2274 13.2604 12.1348C13.2604 11.2884 12.9917 10.5098 12.4685 9.83971C12.3211 9.65092 12.0483 9.37741 11.8612 9.2307C11.1497 8.6729 10.1781 8.39534 9.29291 8.49704ZM37.1442 8.497C35.5317 8.68169 34.2566 9.90306 33.9866 11.5215C33.8848 12.1317 33.9298 12.7095 34.126 13.3112C34.3883 14.1154 34.9517 14.8259 35.6835 15.2756C35.8857 15.3998 35.9321 15.423 36.1806 15.5248C37.3749 16.0138 38.7037 15.8244 39.7326 15.0184C40.471 14.44 40.9829 13.5085 41.0911 12.5462C41.2989 10.6982 40.0912 8.97274 38.3065 8.56782C37.9219 8.48059 37.5078 8.45535 37.1442 8.497ZM10.0627 9.55011C10.3462 9.59449 10.5224 9.65084 10.784 9.78085C11.3104 10.0424 11.7025 10.4337 11.9602 10.9546C12.1571 11.3524 12.234 11.6837 12.234 12.1348C12.234 12.5951 12.1546 12.9288 11.9476 13.3389C11.4941 14.2371 10.5716 14.7838 9.57912 14.7424C8.90298 14.7142 8.33336 14.46 7.86186 13.9762C7.63376 13.7421 7.4899 13.5379 7.36829 13.2757C7.1756 12.8602 7.11532 12.5883 7.11532 12.1348C7.11532 11.7699 7.13909 11.6152 7.24356 11.3002C7.54821 10.3819 8.33703 9.70226 9.27317 9.55146C9.49946 9.515 9.83474 9.51443 10.0627 9.55011ZM38.0719 9.5785C38.5157 9.6844 38.8717 9.86873 39.2203 10.1731C39.7583 10.6428 40.0852 11.3843 40.0852 12.1348C40.0852 13.6231 38.8759 14.8061 37.4205 14.7413C36.763 14.7121 36.2179 14.4758 35.7456 14.0154C35.5165 13.7921 35.367 13.5813 35.219 13.2732C34.9623 12.7387 34.8943 12.1825 35.0129 11.5893C35.1113 11.0974 35.3381 10.6775 35.7129 10.2931C36.1025 9.89371 36.5364 9.65834 37.0652 9.55972C37.3366 9.5091 37.8188 9.51811 38.0719 9.5785ZM9.06592 9.985C8.9346 10.0224 8.53659 10.2112 8.4555 10.2746C8.4192 10.303 8.42364 10.3109 8.55419 10.4501C8.90598 10.8253 9.19688 11.1092 9.22945 11.1092C9.30898 11.1092 9.31265 11.0824 9.31265 10.5019V9.94283L9.25837 9.94426C9.22853 9.94505 9.14191 9.96339 9.06592 9.985ZM10.043 10.4996C10.043 11.0757 10.0473 11.1092 10.1211 11.1092C10.1381 11.1092 10.3286 10.929 10.5446 10.7087L10.9373 10.3083L10.8306 10.239C10.6252 10.1055 10.3234 9.98112 10.135 9.95232L10.043 9.93827V10.4996ZM36.9172 9.985C36.7793 10.0243 36.3845 10.2129 36.3003 10.2798L36.2558 10.3151L36.6486 10.7149C37.0037 11.0763 37.0462 11.1134 37.0927 11.1015L37.1442 11.0883V10.5156V9.94283L37.0998 9.94426C37.0754 9.94505 36.9932 9.96339 36.9172 9.985ZM37.8943 10.5156V11.0883L37.9458 11.1015C37.9924 11.1134 38.0348 11.0765 38.3929 10.7117L38.7885 10.3087L38.6917 10.246C38.5347 10.1444 38.3225 10.0473 38.1398 9.99331C37.8662 9.91253 37.8943 9.85276 37.8943 10.5156ZM7.79737 10.981C7.67049 11.2032 7.51643 11.6125 7.51643 11.7275C7.51643 11.7481 7.63161 11.7523 8.08167 11.748C8.6353 11.7428 8.64722 11.7418 8.6622 11.7005C8.67529 11.6644 8.61913 11.5989 8.27692 11.2505L7.87633 10.8428L7.79737 10.981ZM11.063 11.2464C10.7054 11.6111 10.6732 11.6496 10.6854 11.6989L10.6986 11.7527H11.2693H11.84L11.8282 11.6974C11.8015 11.5717 11.7349 11.3587 11.689 11.2526C11.6307 11.1177 11.4816 10.8478 11.4654 10.8478C11.4591 10.8478 11.278 11.0272 11.063 11.2464ZM35.6558 10.9653C35.5445 11.1519 35.4543 11.3638 35.4089 11.5449C35.3862 11.6352 35.3677 11.7191 35.3677 11.7312C35.3677 11.7469 35.5322 11.7518 35.9329 11.748C36.4866 11.7428 36.4985 11.7418 36.5135 11.7005C36.5266 11.6644 36.4704 11.5989 36.1286 11.2509L35.7284 10.8436L35.6558 10.9653ZM38.9145 11.2458C38.5567 11.611 38.5245 11.6496 38.5366 11.6989L38.5499 11.7527H39.1103C39.7593 11.7527 39.7006 11.782 39.6201 11.4986C39.5662 11.3087 39.4241 10.9949 39.3502 10.9025L39.3056 10.8466L38.9145 11.2458ZM9.60638 11.2501C9.58881 11.2606 9.56308 11.2971 9.54918 11.3312C9.52691 11.386 9.52857 11.3997 9.56335 11.4473C9.64385 11.5577 9.80612 11.5074 9.80612 11.3721C9.80612 11.2737 9.68796 11.2015 9.60638 11.2501ZM37.4295 11.2792C37.3703 11.3395 37.3682 11.3888 37.422 11.4584C37.4495 11.4941 37.4817 11.5114 37.5207 11.5114C37.6485 11.5114 37.7051 11.3514 37.6054 11.2716C37.5371 11.2168 37.4887 11.2189 37.4295 11.2792ZM9.58803 11.8194C9.37737 11.891 9.29455 12.098 9.39733 12.296C9.45175 12.4008 9.55184 12.4599 9.67505 12.4599C9.81974 12.4599 9.91514 12.3918 9.97504 12.2457C10.0735 12.0056 9.82992 11.7372 9.58803 11.8194ZM37.4361 11.8122C37.1727 11.8962 37.1172 12.2574 37.3441 12.4104C37.4784 12.5009 37.6764 12.4701 37.7741 12.3436C37.9353 12.1348 37.8195 11.8466 37.558 11.8058C37.5204 11.7999 37.4655 11.8028 37.4361 11.8122ZM8.83892 12.0343C8.78638 12.0878 8.78815 12.1828 8.84265 12.2346C8.91409 12.3024 9.00048 12.2851 9.04685 12.1938C9.11643 12.0567 8.94557 11.9256 8.83892 12.0343ZM10.3283 12.0434C10.3017 12.0706 10.2798 12.1117 10.2798 12.1348C10.2798 12.1874 10.3642 12.2756 10.4145 12.2756C10.4774 12.2756 10.5562 12.1984 10.5562 12.1369C10.5562 12.0709 10.4834 11.994 10.4208 11.994C10.3966 11.994 10.355 12.0163 10.3283 12.0434ZM36.7039 12.0164C36.646 12.0507 36.6267 12.1284 36.6599 12.1938C36.7063 12.2851 36.7927 12.3024 36.8641 12.2346C36.982 12.1227 36.8433 11.9337 36.7039 12.0164ZM38.174 12.0406C38.1152 12.1044 38.1188 12.1824 38.1831 12.2339C38.2117 12.2568 38.2521 12.2756 38.2728 12.2756C38.3232 12.2756 38.4075 12.1874 38.4075 12.1348C38.4075 12.0781 38.3216 11.994 38.2638 11.994C38.238 11.994 38.1976 12.015 38.174 12.0406ZM7.5282 12.5923C7.56538 12.7992 7.71504 13.1667 7.83598 13.348L7.88391 13.4198L8.28069 13.0136C8.63467 12.6512 8.6756 12.6025 8.66015 12.5621L8.6428 12.5169H8.07873H7.51464L7.5282 12.5923ZM10.6944 12.5354C10.6944 12.5455 10.689 12.568 10.6825 12.5854C10.6741 12.6076 10.785 12.7326 11.0585 13.0093C11.2719 13.2251 11.4542 13.4017 11.4638 13.4017C11.4868 13.4017 11.6096 13.194 11.6799 13.036C11.7318 12.9195 11.7993 12.7082 11.8282 12.5722L11.84 12.5169H11.2672C10.9325 12.5169 10.6944 12.5246 10.6944 12.5354ZM35.3771 12.5918C35.4186 12.8173 35.5853 13.223 35.6995 13.3766L35.7331 13.422L36.1309 13.0147C36.4858 12.6513 36.5269 12.6025 36.5114 12.5621L36.4941 12.5169H35.9287H35.3633L35.3771 12.5918ZM38.5366 12.5707C38.5245 12.62 38.556 12.6578 38.9044 13.0131C39.114 13.2269 39.296 13.4017 39.3089 13.4017C39.3651 13.4017 39.5441 13.0363 39.6227 12.761C39.7003 12.4893 39.7582 12.5169 39.1103 12.5169H38.5499L38.5366 12.5707ZM9.57069 12.8112C9.52336 12.8725 9.52226 12.8803 9.55169 12.9461C9.61254 13.0822 9.80612 13.0372 9.80612 12.887C9.80612 12.7617 9.64817 12.7109 9.57069 12.8112ZM37.422 12.8112C37.358 12.8941 37.3716 12.963 37.4613 13.0103C37.5958 13.0812 37.7246 12.9071 37.6179 12.7984C37.5611 12.7406 37.472 12.7464 37.422 12.8112ZM8.80418 13.5477C8.59531 13.7607 8.42441 13.9446 8.42441 13.9564C8.42441 13.9807 8.66145 14.1224 8.80931 14.1865C8.92792 14.2379 9.22329 14.3268 9.27538 14.3268C9.31103 14.3268 9.31265 14.3023 9.31265 13.7644C9.31265 13.229 9.31082 13.201 9.27448 13.1812C9.25348 13.1698 9.22452 13.1604 9.21013 13.1604C9.19574 13.1604 9.01308 13.3347 8.80418 13.5477ZM10.0677 13.1737C10.0487 13.1815 10.043 13.317 10.043 13.7553C10.043 14.4102 10.0205 14.3528 10.2515 14.2876C10.441 14.2342 10.6807 14.1288 10.8208 14.0374L10.9373 13.9613L10.5446 13.5609C10.1759 13.1849 10.1304 13.1479 10.0677 13.1737ZM36.6555 13.5477C36.4466 13.7607 36.2757 13.9443 36.2757 13.9557C36.2757 13.9814 36.4406 14.0837 36.6112 14.164C36.7345 14.222 37.06 14.3268 37.1168 14.3268C37.1395 14.3268 37.1442 14.2295 37.1442 13.7558C37.1442 13.1545 37.145 13.1604 37.0585 13.1604C37.0457 13.1604 36.8643 13.3347 36.6555 13.5477ZM37.9189 13.1737C37.9 13.1815 37.8943 13.3173 37.8943 13.7571V14.3303L37.9781 14.3159C38.1797 14.2814 38.5639 14.1206 38.7262 14.0029L38.7865 13.9592L38.3948 13.5598C38.0272 13.1848 37.9817 13.1479 37.9189 13.1737Z" fill="black"/>
</svg>
