<svg width="22" height="22" viewBox="0 0 22 22" fill="none" xmlns="http://www.w3.org/2000/svg">
<path fill-rule="evenodd" clip-rule="evenodd" d="M0 3.31117V6.62234L1.0957 6.59828L2.19141 6.57422L2.23438 5.17687L2.27734 3.77962L4.76841 6.27206L7.25948 8.76451L8.01316 8.01427L8.76691 7.26404L6.2553 4.7514L3.74378 2.23884L5.159 2.21513L6.57422 2.19141L6.59828 1.0957L6.62234 0H3.31117H0V3.31117ZM15.4017 1.0957L15.4258 2.19141L16.8231 2.23438L18.2204 2.27734L15.7279 4.76841L13.2355 7.25948L13.9857 8.01316L14.736 8.76691L17.2486 6.2553L19.7612 3.74378L19.7849 5.159L19.8086 6.57422L20.9043 6.59828L22 6.62234V3.31117V0H18.6888H15.3777L15.4017 1.0957ZM4.76841 15.7279L2.27734 18.2204L2.23438 16.8231L2.19141 15.4258L1.0957 15.4017L0 15.3777V18.6888V22H3.31117H6.62234L6.59828 20.9043L6.57422 19.8086L5.159 19.7849L3.74378 19.7612L6.2553 17.2486L8.76691 14.736L8.01316 13.9857L7.25948 13.2355L4.76841 15.7279ZM13.9857 13.9868L13.2355 14.7405L15.7279 17.2316L18.2204 19.7227L16.8231 19.7656L15.4258 19.8086L15.4017 20.9043L15.3777 22H18.6888H22V18.6888V15.3777L20.9043 15.4017L19.8086 15.4258L19.7849 16.841L19.7612 18.2562L17.2486 15.7447L14.736 13.2331L13.9857 13.9868Z" fill="black"/>
</svg>
