<svg width="34" height="34" viewBox="0 0 34 34" fill="none" xmlns="http://www.w3.org/2000/svg">
<g clip-path="url(#clip0_795_10890)">
<path d="M29.7513 5.66659V26.5213C29.7515 26.6588 29.7116 26.7933 29.6367 26.9085C29.5617 27.0237 29.4549 27.1146 29.3291 27.1702L17.0013 32.6258L4.67347 27.1716C4.54729 27.1159 4.44013 27.0245 4.36514 26.9088C4.29014 26.793 4.25058 26.6578 4.2513 26.5199V5.66659H1.41797V2.83325H32.5846V5.66659H29.7513ZM7.08464 5.66659V25.1387L17.0013 29.5303L26.918 25.1387V5.66659H7.08464ZM11.3346 11.3333H22.668V14.1666H11.3346V11.3333ZM11.3346 16.9999H22.668V19.8333H11.3346V16.9999Z" fill="black"/>
</g>
<defs>
<clipPath id="clip0_795_10890">
<rect width="34" height="34" fill="white"/>
</clipPath>
</defs>
</svg>
