<svg width="35" height="36" viewBox="0 0 35 36" fill="none" xmlns="http://www.w3.org/2000/svg">
<path fill-rule="evenodd" clip-rule="evenodd" d="M9.80223 11.855C9.79359 11.8581 9.71556 11.8827 9.62881 11.9097L9.47109 11.9589L9.45232 12.1653C9.44201 12.2789 9.42943 12.387 9.42438 12.4056C9.41709 12.4323 9.33304 12.4733 9.0199 12.6026C8.64594 12.7571 8.5018 12.8136 7.61191 13.1548C6.88334 13.4341 6.26818 13.6872 5.57075 13.9946C5.45417 14.046 5.24927 14.1355 5.11541 14.1934C4.98156 14.2513 4.7166 14.3775 4.52662 14.4737C4.02719 14.7268 3.93876 14.7523 3.41682 14.7938C3.24686 14.8073 3.02076 14.8364 2.91438 14.8585C2.36245 14.9732 1.81991 15.0243 0.892036 15.0489L0.758826 15.0525L0.676474 15.1736C0.584276 15.3092 0.49894 15.4723 0.499851 15.5113C0.50018 15.5254 0.528003 15.5565 0.561682 15.5805C0.661086 15.6512 0.686193 15.8082 0.618301 15.9346C0.516196 16.1246 0.483553 16.3575 0.483553 16.896V17.2871L0.412567 17.3395C0.20718 17.4912 0.0605776 17.8327 0.0113699 18.2742C-0.00993662 18.4653 0.000174962 18.9395 0.029442 19.1219C0.0434475 19.2092 0.0431492 19.2603 0.0281388 19.3467C0.0100981 19.4505 0.012312 19.4798 0.0593686 19.7585C0.0872225 19.9236 0.112737 20.0731 0.116066 20.0909C0.119394 20.1087 0.161819 20.1523 0.210336 20.1878C0.341394 20.2838 0.616715 20.5839 0.665373 20.6839C0.7308 20.8183 0.775313 20.8688 0.882992 20.9307C1.21259 21.1203 1.84852 21.2524 2.94079 21.3582C3.33381 21.3962 4.10515 21.4495 4.48579 21.4649L4.75898 21.476L4.74836 21.4052C4.706 21.1227 4.72321 20.6679 4.78798 20.3574C5.02675 19.2126 5.85511 18.3217 6.95745 18.0239C7.29038 17.934 7.77969 17.9073 8.12589 17.9602C8.51484 18.0196 8.92657 18.1727 9.24461 18.3762C10.053 18.8935 10.5663 19.7445 10.6587 20.7207C10.6863 21.0122 10.6504 21.5899 10.5872 21.87C10.5743 21.9273 10.5637 21.978 10.5637 21.9826C10.5637 21.992 20.4175 21.9773 24.441 21.9619L27.0213 21.9521L27.0117 21.9178C26.9142 21.5664 26.8779 21.314 26.8779 20.9872C26.8779 20.1818 27.1656 19.4476 27.7092 18.8658C28.1654 18.3773 28.7769 18.056 29.4366 17.9581C29.7066 17.918 30.1934 17.933 30.4452 17.9892C30.8887 18.0882 31.2741 18.2683 31.6313 18.5436C32.1711 18.9595 32.5654 19.5662 32.7263 20.2282C32.849 20.7329 32.8418 21.3508 32.7077 21.817C32.6994 21.846 32.7074 21.8469 32.8774 21.8364C33.7031 21.7856 34.2798 21.7063 34.4886 21.6149C34.6714 21.535 34.9159 21.1852 34.9161 21.0033C34.9162 20.9633 34.8989 20.7509 34.8777 20.5312C34.8419 20.1596 34.8408 20.1232 34.8624 20.0075C34.9563 19.5026 34.9999 19.0508 35 18.581C35.0001 18.0324 34.9534 17.7846 34.8073 17.56C34.5874 17.2219 34.199 16.9861 33.4483 16.7352C32.674 16.4764 32.1907 16.354 30.8183 16.0696C29.791 15.8567 28.7372 15.6911 27.8429 15.6019C27.2566 15.5434 26.9121 15.5274 25.9195 15.5125C25.3539 15.504 24.8511 15.4902 24.8023 15.4818C24.6911 15.4626 24.6146 15.4227 24.4358 15.2905C24.2992 15.1896 24.139 15.0895 23.4544 14.6774C22.9078 14.3483 22.5987 14.1704 21.7195 13.6789C21.3022 13.4457 20.178 12.8625 19.9609 12.7666C19.6126 12.6129 19.2987 12.5094 18.7676 12.3735C18.0472 12.1891 17.2848 12.0844 16.0827 12.005C15.6591 11.9769 13.608 11.977 13.0445 12.005C12.4075 12.0367 11.6088 12.0856 11.1142 12.1231C10.7707 12.1492 10.6543 12.1529 10.6098 12.1392C10.5779 12.1294 10.4751 12.0732 10.3812 12.0143C10.1638 11.8779 10.079 11.8466 9.93215 11.8482C9.86933 11.8489 9.81086 11.852 9.80223 11.855ZM14.8733 12.6423C14.8887 12.7116 14.9907 13.3601 15.086 13.9947C15.1837 14.6444 15.3297 15.5701 15.3456 15.6403L15.3544 15.6791L14.8157 15.6683C14.5195 15.6623 13.8602 15.6503 13.3507 15.6416C10.6795 15.5959 9.66253 15.5524 8.97006 15.4543C8.6582 15.4102 8.55018 15.3744 8.41472 15.2705C7.95787 14.9201 7.80414 14.4636 7.9853 13.9953C8.03023 13.8791 8.02841 13.8812 8.185 13.7711C8.34594 13.658 8.4717 13.59 8.72548 13.4789C9.33939 13.2103 10.1998 12.9865 11.1447 12.8497C12.1555 12.7033 13.3597 12.6177 14.5398 12.6085L14.8653 12.6059L14.8733 12.6423ZM16.1926 12.6463C16.6143 12.6609 16.8416 12.6808 17.21 12.7352C18.2005 12.8814 19.09 13.0727 19.609 13.2511C19.9622 13.3725 20.4838 13.643 21.0993 14.024C21.6073 14.3384 22.2297 14.7664 22.2297 14.8012C22.2297 14.8081 22.1942 14.8181 22.1508 14.8234C22.0412 14.8368 21.8929 14.909 21.8344 14.9774C21.8075 15.009 21.7671 15.0751 21.7446 15.1244C21.709 15.2027 21.7041 15.2333 21.7059 15.3674C21.7072 15.4638 21.7174 15.547 21.7333 15.5915C21.7473 15.6303 21.7587 15.6685 21.7587 15.6763C21.7587 15.6844 20.6959 15.6887 19.2843 15.6864L16.81 15.6823L16.7497 15.5127C16.3357 14.3496 16.0793 13.5589 15.8879 12.8555C15.8287 12.638 15.8276 12.619 15.8747 12.629C15.8941 12.6332 16.0372 12.641 16.1926 12.6463ZM7.39209 18.0659C6.56633 18.1617 5.8518 18.5956 5.35665 19.3019C5.23182 19.48 5.05463 19.8427 4.98307 20.0667C4.79679 20.6496 4.79688 21.3269 4.98332 21.9076C5.05534 22.132 5.23159 22.4923 5.36252 22.6828C5.49786 22.8797 5.8482 23.2404 6.04178 23.3822C6.21588 23.5097 6.60042 23.7094 6.80441 23.7783C7.73745 24.0933 8.77246 23.8884 9.52639 23.2393C10.1794 22.6771 10.548 21.8645 10.548 20.9872C10.548 20.3075 10.3343 19.6822 9.91812 19.1441C9.80086 18.9925 9.5839 18.7729 9.43504 18.6551C8.86904 18.2071 8.09618 17.9843 7.39209 18.0659ZM29.5465 18.0659C28.2638 18.2142 27.2495 19.195 27.0348 20.4946C26.9538 20.9847 26.9896 21.4487 27.1457 21.9319C27.3543 22.5776 27.8025 23.1482 28.3846 23.5093C28.5454 23.609 28.5823 23.6277 28.7801 23.7094C29.73 24.1021 30.7871 23.95 31.6055 23.3028C32.1928 22.8383 32.6 22.0903 32.6861 21.3175C32.8514 19.8335 31.8907 18.4479 30.471 18.1228C30.1651 18.0527 29.8357 18.0324 29.5465 18.0659ZM8.00444 18.9116C8.22995 18.9472 8.37007 18.9925 8.57816 19.0969C8.99689 19.3069 9.30877 19.6211 9.51383 20.0394C9.67045 20.3589 9.73157 20.6249 9.73157 20.9872C9.73157 21.3568 9.66844 21.6247 9.50375 21.9541C9.14304 22.6754 8.4092 23.1144 7.61976 23.0811C7.08191 23.0585 6.62881 22.8544 6.25375 22.4658C6.07231 22.2779 5.95788 22.1139 5.86114 21.9033C5.70787 21.5697 5.65991 21.3513 5.65991 20.9872C5.65991 20.6941 5.67882 20.5699 5.76193 20.317C6.00426 19.5795 6.63173 19.0337 7.37639 18.9126C7.55639 18.8834 7.82309 18.8829 8.00444 18.9116ZM30.2845 18.9344C30.6375 19.0194 30.9207 19.1674 31.198 19.4118C31.6259 19.789 31.886 20.3845 31.886 20.9872C31.886 22.1823 30.924 23.1323 29.7663 23.0803C29.2433 23.0568 28.8097 22.8671 28.434 22.4973C28.2518 22.318 28.1328 22.1488 28.0151 21.9013C27.8109 21.4721 27.7568 21.0255 27.8512 20.5491C27.9294 20.1541 28.1098 19.8169 28.408 19.5082C28.7179 19.1875 29.0631 18.9985 29.4837 18.9193C29.6996 18.8786 30.0831 18.8859 30.2845 18.9344ZM7.21153 19.2608C7.10707 19.2908 6.79047 19.4425 6.72597 19.4934C6.69709 19.5162 6.70062 19.5225 6.80447 19.6343C7.0843 19.9355 7.3157 20.1636 7.34161 20.1636C7.40487 20.1636 7.40779 20.142 7.40779 19.6759V19.2269L7.36461 19.2281C7.34087 19.2287 7.27198 19.2434 7.21153 19.2608ZM7.98874 19.674C7.98874 20.1366 7.99216 20.1636 8.0509 20.1636C8.06437 20.1636 8.21596 20.0189 8.38777 19.842L8.70014 19.5204L8.61528 19.4647C8.45189 19.3575 8.21182 19.2577 8.06195 19.2346L7.98874 19.2233V19.674ZM29.3659 19.2608C29.2562 19.2923 28.9422 19.4438 28.8752 19.4975L28.8399 19.5259L29.1523 19.8469C29.4347 20.1371 29.4686 20.1669 29.5056 20.1574L29.5465 20.1468V19.6869V19.2269L29.5112 19.2281C29.4918 19.2287 29.4264 19.2434 29.3659 19.2608ZM30.1432 19.6869V20.1468L30.1842 20.1574C30.2213 20.167 30.255 20.1373 30.5398 19.8443L30.8545 19.5207L30.7775 19.4704C30.6526 19.3888 30.4838 19.3108 30.3384 19.2675C30.1208 19.2026 30.1432 19.1546 30.1432 19.6869ZM6.20246 20.0606C6.10153 20.239 5.97898 20.5677 5.97898 20.6601C5.97898 20.6766 6.0706 20.68 6.4286 20.6765C6.86899 20.6723 6.87847 20.6716 6.89039 20.6384C6.9008 20.6094 6.85613 20.5568 6.58392 20.2771L6.26526 19.9496L6.20246 20.0606ZM8.80013 20.2738C8.51562 20.5666 8.49008 20.5975 8.49973 20.6371L8.51028 20.6803H8.9642H9.41814L9.4088 20.6359C9.38756 20.5349 9.33455 20.3639 9.29809 20.2788C9.25171 20.1704 9.13312 19.9536 9.1202 19.9536C9.11519 19.9536 8.97114 20.0977 8.80013 20.2738ZM28.3625 20.048C28.2741 20.1979 28.2022 20.368 28.1661 20.5135C28.1481 20.586 28.1334 20.6533 28.1334 20.6631C28.1334 20.6757 28.2643 20.6796 28.583 20.6765C29.0234 20.6723 29.0329 20.6716 29.0448 20.6384C29.0552 20.6094 29.0106 20.5568 28.7386 20.2774L28.4203 19.9502L28.3625 20.048ZM30.9547 20.2733C30.6701 20.5666 30.6445 20.5975 30.6542 20.6371L30.6647 20.6803H31.1105C31.6267 20.6803 31.58 20.7038 31.516 20.4762C31.4731 20.3238 31.3601 20.0718 31.3013 19.9976L31.2658 19.9527L30.9547 20.2733ZM7.64144 20.2767C7.62747 20.2851 7.60699 20.3144 7.59594 20.3419C7.57823 20.3859 7.57955 20.3968 7.60721 20.4351C7.67124 20.5237 7.80032 20.4833 7.80032 20.3747C7.80032 20.2957 7.70633 20.2377 7.64144 20.2767ZM29.7735 20.3001C29.7264 20.3485 29.7247 20.3881 29.7675 20.444C29.7894 20.4727 29.815 20.4865 29.846 20.4865C29.9477 20.4865 29.9927 20.3581 29.9134 20.2939C29.859 20.25 29.8205 20.2517 29.7735 20.3001ZM7.62684 20.7339C7.45927 20.7914 7.39339 20.9576 7.47515 21.1166C7.51844 21.2008 7.59806 21.2482 7.69606 21.2482C7.81115 21.2482 7.88704 21.1935 7.93469 21.0762C8.01304 20.8834 7.81926 20.6679 7.62684 20.7339ZM29.7787 20.7281C29.5692 20.7955 29.525 21.0856 29.7056 21.2085C29.8123 21.2811 29.9699 21.2564 30.0476 21.1549C30.1758 20.9872 30.0837 20.7557 29.8757 20.723C29.8458 20.7182 29.8021 20.7206 29.7787 20.7281ZM7.03096 20.9064C6.98916 20.9494 6.99058 21.0257 7.03393 21.0673C7.09075 21.1217 7.15948 21.1079 7.19636 21.0346C7.2517 20.9245 7.1158 20.8192 7.03096 20.9064ZM8.2157 20.9138C8.1945 20.9356 8.17715 20.9686 8.17715 20.9872C8.17715 21.0294 8.24421 21.1002 8.28423 21.1002C8.33427 21.1002 8.39697 21.0382 8.39697 20.9888C8.39697 20.9358 8.33903 20.8741 8.28926 20.8741C8.26999 20.8741 8.23689 20.892 8.2157 20.9138ZM29.1963 20.8921C29.1502 20.9196 29.1349 20.982 29.1613 21.0346C29.1982 21.1079 29.2669 21.1217 29.3237 21.0673C29.4175 20.9774 29.3072 20.8257 29.1963 20.8921ZM30.3657 20.9115C30.3189 20.9627 30.3218 21.0254 30.3729 21.0667C30.3957 21.0851 30.4278 21.1002 30.4443 21.1002C30.4843 21.1002 30.5514 21.0294 30.5514 20.9872C30.5514 20.9416 30.4831 20.8741 30.4371 20.8741C30.4166 20.8741 30.3845 20.8909 30.3657 20.9115ZM5.98834 21.3545C6.01792 21.5207 6.13697 21.8158 6.23317 21.9614L6.27129 22.0191L6.58692 21.6929C6.86848 21.4018 6.90105 21.3627 6.88876 21.3303L6.87495 21.294H6.42626H5.97755L5.98834 21.3545ZM8.50688 21.3088C8.50688 21.317 8.50262 21.3351 8.49742 21.349C8.49075 21.3668 8.57894 21.4672 8.79655 21.6894C8.96628 21.8627 9.11133 22.0045 9.11889 22.0045C9.13725 22.0045 9.23493 21.8377 9.29084 21.7108C9.33208 21.6173 9.38583 21.4476 9.4088 21.3384L9.41814 21.294H8.96251C8.69628 21.294 8.50688 21.3002 8.50688 21.3088ZM28.1409 21.3542C28.1739 21.5352 28.3065 21.861 28.3973 21.9844L28.4241 22.0208L28.7405 21.6937C29.0228 21.4019 29.0555 21.3627 29.0432 21.3303L29.0294 21.294H28.5796H28.1299L28.1409 21.3542ZM30.6542 21.3372C30.6445 21.3767 30.6695 21.4072 30.9467 21.6925C31.1134 21.8641 31.2582 22.0045 31.2684 22.0045C31.3131 22.0045 31.4555 21.7111 31.5181 21.49C31.5798 21.2718 31.6258 21.294 31.1105 21.294H30.6647L30.6542 21.3372ZM7.61305 21.5303C7.5754 21.5795 7.57452 21.5858 7.59793 21.6386C7.64634 21.7479 7.80032 21.7118 7.80032 21.5912C7.80032 21.4905 7.67468 21.4497 7.61305 21.5303ZM29.7675 21.5303C29.7166 21.5969 29.7274 21.6522 29.7987 21.6902C29.9058 21.7471 30.0082 21.6073 29.9233 21.5201C29.8782 21.4736 29.8073 21.4783 29.7675 21.5303ZM7.00333 22.1218C6.83718 22.2928 6.70124 22.4405 6.70124 22.4499C6.70124 22.4695 6.88979 22.5833 7.00741 22.6347C7.10176 22.676 7.33671 22.7474 7.37815 22.7474C7.4065 22.7474 7.40779 22.7277 7.40779 22.2958C7.40779 21.8658 7.40633 21.8434 7.37742 21.8275C7.36072 21.8183 7.33768 21.8107 7.32624 21.8107C7.31479 21.8107 7.16949 21.9507 7.00333 22.1218ZM8.00836 21.8214C7.9933 21.8277 7.98874 21.9365 7.98874 22.2885C7.98874 22.8143 7.97087 22.7683 8.15459 22.716C8.3053 22.673 8.49601 22.5884 8.60743 22.515L8.70014 22.4539L8.38777 22.1323C8.0945 21.8304 8.05826 21.8007 8.00836 21.8214ZM29.1577 22.1218C28.9916 22.2928 28.8557 22.4403 28.8557 22.4494C28.8557 22.47 28.9868 22.5522 29.1226 22.6167C29.2206 22.6632 29.4795 22.7474 29.5247 22.7474C29.5428 22.7474 29.5465 22.6693 29.5465 22.2889C29.5465 21.806 29.5472 21.8107 29.4784 21.8107C29.4682 21.8107 29.3239 21.9507 29.1577 22.1218ZM30.1628 21.8214C30.1477 21.8277 30.1432 21.9368 30.1432 22.2899V22.7502L30.2099 22.7387C30.3702 22.7109 30.6758 22.5818 30.8049 22.4873L30.8529 22.4522L30.5413 22.1315C30.2489 21.8304 30.2127 21.8007 30.1628 21.8214Z" fill="black"/>
</svg>
