<svg width="46" height="46" viewBox="0 0 46 46" fill="none" xmlns="http://www.w3.org/2000/svg">
<path fill-rule="evenodd" clip-rule="evenodd" d="M40.2337 23.9027C39.7601 23.8782 39.3981 23.4743 39.3981 23C39.3981 22.5257 39.7601 22.1218 40.2337 22.0973L42.0485 22.0037C42.6281 21.9739 43.125 22.4196 43.125 23C43.125 23.5804 42.6281 24.0261 42.0485 23.9962L40.2337 23.9027ZM37.203 14.7986C37.4405 15.209 37.9563 15.379 38.3787 15.1633L39.9945 14.3384C40.5129 14.0737 40.7203 13.4358 40.4287 12.9319C40.1371 12.4281 39.4825 12.2927 38.9946 12.6102L37.474 13.5997C37.0765 13.8583 36.9655 14.3881 37.203 14.7986ZM31.2014 8.79698C31.6119 9.0345 32.1417 8.92345 32.4003 8.52597L33.3898 7.00539C33.7073 6.51748 33.5719 5.86287 33.0681 5.5713C32.5642 5.27974 31.9263 5.48707 31.6616 6.00552L30.8367 7.6213C30.621 8.04366 30.791 8.55946 31.2014 8.79698ZM23 6.60185C23.4743 6.60185 23.8782 6.23995 23.9027 5.76627L23.9962 3.95147C24.0261 3.37188 23.5804 2.875 23 2.875C22.4196 2.875 21.9739 3.37188 22.0037 3.95147L22.0973 5.76627C22.1218 6.23994 22.5257 6.60185 23 6.60185ZM14.7986 8.79698C15.209 8.55946 15.379 8.04366 15.1633 7.6213L14.3384 6.00552C14.0737 5.48707 13.4358 5.27974 12.9319 5.5713C12.4281 5.86287 12.2927 6.51748 12.6102 7.00539L13.5997 8.52597C13.8583 8.92345 14.3881 9.03451 14.7986 8.79698ZM8.79698 14.7986C9.0345 14.3881 8.92345 13.8583 8.52597 13.5997L7.00539 12.6102C6.51748 12.2927 5.86287 12.4281 5.5713 12.9319C5.27974 13.4358 5.48707 14.0737 6.00552 14.3384L7.6213 15.1633C8.04366 15.379 8.55946 15.209 8.79698 14.7986ZM5.76627 22.0973C6.23995 22.1218 6.60185 22.5257 6.60185 23C6.60185 23.4743 6.23994 23.8782 5.76627 23.9027L3.95147 23.9963C3.37188 24.0261 2.875 23.5804 2.875 23C2.875 22.4196 3.37188 21.9739 3.95147 22.0037L5.76627 22.0973ZM8.79698 31.2014C8.55946 30.791 8.04366 30.621 7.6213 30.8367L6.00552 31.6616C5.48707 31.9263 5.27974 32.5642 5.5713 33.0681C5.86287 33.5719 6.51748 33.7073 7.00539 33.3898L8.52598 32.4003C8.92345 32.1417 9.03451 31.6119 8.79698 31.2014ZM14.7986 37.203C14.3881 36.9655 13.8583 37.0765 13.5997 37.474L12.6102 38.9946C12.2927 39.4825 12.4281 40.1371 12.9319 40.4287C13.4358 40.7203 14.0737 40.5129 14.3384 39.9945L15.1633 38.3787C15.379 37.9563 15.209 37.4405 14.7986 37.203ZM23 39.3981C22.5257 39.3981 22.1218 39.7601 22.0973 40.2337L22.0037 42.0485C21.9739 42.6281 22.4196 43.125 23 43.125C23.5804 43.125 24.0261 42.6281 23.9963 42.0485L23.9027 40.2337C23.8782 39.7601 23.4743 39.3981 23 39.3981ZM31.2014 37.203C30.791 37.4405 30.621 37.9563 30.8367 38.3787L31.6616 39.9945C31.9263 40.5129 32.5642 40.7203 33.0681 40.4287C33.5719 40.1371 33.7073 39.4825 33.3898 38.9946L32.4003 37.474C32.1417 37.0765 31.6119 36.9655 31.2014 37.203ZM37.203 31.2014C36.9655 31.6119 37.0765 32.1417 37.474 32.4003L38.9946 33.3898C39.4825 33.7073 40.1371 33.5719 40.4287 33.0681C40.7203 32.5642 40.5129 31.9263 39.9945 31.6616L38.3787 30.8367C37.9563 30.621 37.4405 30.791 37.203 31.2014Z" fill="white"/>
<path d="M36.7896 23C36.7896 30.6157 30.6159 36.7894 23.0003 36.7894C15.3846 36.7894 9.21094 30.6157 9.21094 23C9.21094 15.3844 15.3846 9.21069 23.0003 9.21069C30.6159 9.21069 36.7896 15.3844 36.7896 23Z" fill="white"/>
</svg>
