<svg width="46" height="46" viewBox="0 0 46 46" fill="none" xmlns="http://www.w3.org/2000/svg">
<path fill-rule="evenodd" clip-rule="evenodd" d="M2.30078 35.0402C2.66376 35.4377 3.27813 35.5138 3.75116 35.206L5.43711 34.1089C5.80898 33.8669 5.95473 33.4109 5.83297 33.0009L2.30078 35.0402ZM8.3645 31.5393C11.0364 35.994 15.9127 38.9753 21.4852 38.9753C29.9291 38.9753 36.7742 32.1302 36.7742 23.6863C36.7742 20.9869 36.0746 18.4509 34.8469 16.2497L8.3645 31.5393ZM37.3789 14.7878C37.6741 15.0969 38.142 15.1987 38.5364 14.9974L40.3279 14.0827C40.8272 13.8278 41.0662 13.2607 40.9086 12.75L37.3789 14.7878ZM39.6667 23.6863C39.6667 24.2122 40.068 24.66 40.5932 24.6871L42.6053 24.7909C43.2479 24.824 43.7989 24.3298 43.7989 23.6863C43.7989 23.0428 43.2479 22.5486 42.6053 22.5817L40.5932 22.6855C40.068 22.7126 39.6667 23.1604 39.6667 23.6863ZM11.0626 39.7344C11.3494 39.2937 11.9368 39.1706 12.3919 39.4339C12.847 39.6973 13.0354 40.2692 12.7963 40.7375L11.8817 42.529C11.5882 43.1038 10.8809 43.3337 10.3222 43.0104C9.7636 42.6871 9.61347 41.9613 9.96549 41.4204L11.0626 39.7344ZM20.4844 42.7942C20.5115 42.269 20.9593 41.8678 21.4852 41.8678C22.0111 41.8678 22.459 42.269 22.486 42.7942L22.5898 44.8064C22.623 45.449 22.1287 45.9999 21.4852 45.9999C20.8417 45.9999 20.3475 45.449 20.3806 44.8064L20.4844 42.7942ZM30.1741 40.7375C29.9351 40.2692 30.1235 39.6973 30.5785 39.4339C31.0336 39.1706 31.6211 39.2937 31.9079 39.7344L33.0049 41.4204C33.357 41.9613 33.2068 42.6871 32.6482 43.0104C32.0896 43.3337 31.3823 43.1038 31.0888 42.529L30.1741 40.7375ZM37.5333 34.1089C37.0926 33.8222 36.9695 33.2347 37.2328 32.7796C37.4962 32.3245 38.0681 32.1361 38.5364 32.3752L40.3279 33.2899C40.9027 33.5833 41.1326 34.2907 40.8093 34.8493C40.486 35.4079 39.7602 35.558 39.2193 35.206L37.5333 34.1089Z" fill="white"/>
<path fill-rule="evenodd" clip-rule="evenodd" d="M21.4267 0C20.5417 0 19.8242 0.728887 19.8242 1.62801V6.9916L17.3891 4.79259C16.7323 4.19944 15.7197 4.25335 15.1275 4.913C14.5353 5.57265 14.5877 6.58824 15.2445 7.1814L19.8242 11.3171V18.9848L13.5741 15.3658L12.2039 8.90026C12.0197 8.03143 11.1687 7.47671 10.3029 7.66126C9.43723 7.84582 8.8847 8.69975 9.06884 9.56858L9.83911 13.203L4.76773 10.2665C4.00616 9.82552 3.03004 10.0912 2.58752 10.8599C2.14499 11.6287 2.40362 12.6093 3.16519 13.0503L7.85579 15.7663L4.68949 16.7981C3.84718 17.0726 3.38608 17.9795 3.65957 18.8237C3.93307 19.6679 4.83761 20.1298 5.67991 19.8553L11.5908 17.9291L18.3413 21.8379L11.9334 25.5483L5.61217 23.4884C4.76987 23.2139 3.86533 23.6758 3.59184 24.52C3.31834 25.3642 3.77945 26.2711 4.62175 26.5455L8.19841 27.7111L3.09462 30.6664C2.42073 31.0566 2.14063 31.8694 2.39167 32.5839L40.1287 10.7965C39.643 10.1863 38.7762 10.0053 38.0858 10.4051L33.395 13.1212L34.0873 9.85487C34.2714 8.98604 33.7189 8.1321 32.8532 7.94755C31.9874 7.763 31.1364 8.31771 30.9522 9.18654L29.66 15.284L23.0293 19.1234V11.8329L27.9709 7.37034C28.6278 6.77719 28.6802 5.76159 28.0879 5.10194C27.4957 4.44229 26.4832 4.38838 25.8263 4.98154L23.0293 7.50739V1.62801C23.0293 0.728886 22.3118 0 21.4267 0Z" fill="white"/>
</svg>
