<svg width="52" height="49" viewBox="0 0 52 49" fill="none" xmlns="http://www.w3.org/2000/svg">
<path d="M30.46 4.14477C28.4869 0.618401 23.513 0.618418 21.54 4.14478L2.18386 38.7389C0.263227 42.1715 2.61783 46.6029 6.64389 46.6029H45.3561C49.3822 46.6029 51.7368 42.1715 49.8161 38.7389L30.46 4.14477Z" stroke="white" stroke-width="3"/>
<path fill-rule="evenodd" clip-rule="evenodd" d="M28.603 9.51592C27.4461 7.49469 24.5539 7.49469 23.397 9.51593L7.40717 37.4522C6.25028 39.4735 7.69639 42 10.0102 42H41.9898C44.3036 42 45.7497 39.4735 44.5928 37.4522L28.603 9.51592ZM24.5116 25.5464V36.1456H20.2737V25.5464H17.5547V38.5719H34.1876V25.5464H31.4686V36.1456H27.2307V25.5464H24.5116Z" fill="white"/>
</svg>
