<svg width="46" height="46" viewBox="0 0 46 46" fill="none" xmlns="http://www.w3.org/2000/svg">
<path d="M20.7395 1.71305C20.7395 0.76696 21.4945 0 22.4258 0C23.3571 0 24.112 0.766958 24.112 1.71305V7.89953L27.0552 5.24174C27.7463 4.61761 28.8118 4.67433 29.4349 5.36843C30.0581 6.06254 30.0029 7.13119 29.3118 7.75532L24.112 12.4509V20.1223L31.0891 16.0823L32.4488 9.6664C32.6426 8.75218 33.5381 8.16849 34.449 8.36268C35.36 8.55687 35.9414 9.45542 35.7476 10.3696L35.0192 13.8066L39.955 10.9486C40.7563 10.4846 41.7834 10.7641 42.2491 11.573C42.7147 12.3819 42.4426 13.4138 41.6412 13.8778L36.3048 16.9678L40.0124 18.176C40.8987 18.4648 41.3839 19.419 41.0961 20.3073C40.8083 21.1956 39.8565 21.6816 38.9702 21.3928L32.3747 19.2435L25.9242 22.9786L32.8836 27.0084L39.0476 24.9997C39.9339 24.7109 40.8857 25.1968 41.1735 26.0851C41.4613 26.9734 40.9761 27.9277 40.0898 28.2165L36.8137 29.2841L41.7155 32.1224C42.5168 32.5864 42.789 33.6183 42.3233 34.4272C41.8577 35.2361 40.8306 35.5156 40.0292 35.0516L34.659 31.942L35.4817 35.8238C35.6754 36.738 35.0941 37.6365 34.1831 37.8307C33.2722 38.0249 32.3767 37.4412 32.1829 36.527L30.7289 29.6663L24.112 25.8349V34.0524L28.9745 38.4434C29.6657 39.0675 29.7208 40.1362 29.0976 40.8303C28.4745 41.5244 27.409 41.5811 26.7179 40.957L24.112 38.6038V44.2869C24.112 45.233 23.3571 46 22.4258 46C21.4945 46 20.7395 45.233 20.7395 44.2869V38.1399L17.84 40.7583C17.1488 41.3825 16.0834 41.3258 15.4602 40.6317C14.8371 39.9375 14.8922 38.8689 15.5833 38.2448L20.7395 33.5885V25.9807L13.654 30.0835L12.3065 36.4415C12.1128 37.3557 11.2173 37.9394 10.3063 37.7452C9.3954 37.551 8.81401 36.6524 9.00776 35.7382L9.7239 32.3592L4.82232 35.1974C4.02097 35.6614 2.99387 35.3819 2.52823 34.573C2.06259 33.7641 2.33473 32.7322 3.13608 32.2682L8.50647 29.1585L4.74298 27.9321C3.85669 27.6433 3.37149 26.6891 3.65927 25.8008C3.94706 24.9125 4.89884 24.4265 5.78514 24.7153L12.4366 26.8828L19.1792 22.9786L12.0761 18.8656L5.85641 20.8924C4.97011 21.1812 4.01833 20.6952 3.73055 19.8069C3.44277 18.9186 3.92796 17.9644 4.81426 17.6756L8.14595 16.5899L3.21035 13.732C2.409 13.2679 2.13685 12.2361 2.60249 11.4272C3.06814 10.6183 4.09523 10.3387 4.89658 10.8028L10.2329 13.8927L9.42236 10.0684C9.2286 9.15417 9.80999 8.25564 10.7209 8.06144C11.6319 7.86725 12.5274 8.45095 12.7211 9.36516L14.163 16.1684L20.7395 19.9765V11.9082L15.9206 7.55651C15.2295 6.93237 15.1743 5.86373 15.7975 5.16962C16.4206 4.47552 17.4861 4.4188 18.1772 5.04293L20.7395 7.3568V1.71305Z" fill="white"/>
</svg>
