<svg width="20" height="20" viewBox="0 0 20 20" fill="none" xmlns="http://www.w3.org/2000/svg">
<path d="M16.6667 2.5H3.33333C2.8725 2.5 2.5 2.8725 2.5 3.33333V5.49167C2.5 5.9275 2.6775 6.35583 2.98583 6.66417L7.5 11.1783V17.5C7.5 17.7892 7.65 18.0567 7.89583 18.2092C8.02917 18.2917 8.18083 18.3333 8.33333 18.3333C8.46083 18.3333 8.58833 18.3042 8.70583 18.2458L12.0392 16.5792C12.3217 16.4375 12.5 16.1492 12.5 15.8333V11.1783L17.0142 6.66417C17.3225 6.35583 17.5 5.9275 17.5 5.49167V3.33333C17.5 2.8725 17.1275 2.5 16.6667 2.5ZM11.0775 10.2442C10.9208 10.4 10.8333 10.6117 10.8333 10.8333V15.3183L9.16667 16.1517V10.8333C9.16667 10.6117 9.07917 10.4 8.9225 10.2442L4.16667 5.49167V4.16667H15.8342L15.8358 5.48583L11.0775 10.2442Z" fill="black"/>
</svg>
