<svg width="28" height="28" viewBox="0 0 28 28" fill="none" xmlns="http://www.w3.org/2000/svg">
<path fill-rule="evenodd" clip-rule="evenodd" d="M18.3826 7.28874C18.5092 7.32783 18.6147 7.43962 18.6508 7.57307C18.6704 7.64554 18.6818 8.994 18.6818 11.2605C18.682 15.1336 18.6901 14.9509 18.5123 15.1193L18.428 15.1992L9.61322 15.2072C1.26818 15.2148 0.792782 15.2123 0.691736 15.1593C0.633028 15.1285 0.555984 15.0627 0.520529 15.0131C0.456215 14.923 0.45606 14.9146 0.45606 11.2411C0.45606 7.73392 0.458736 7.55539 0.512684 7.47375C0.543842 7.42664 0.606878 7.36191 0.652763 7.32991C0.73292 7.27407 1.08262 7.27154 9.51457 7.26639C14.3897 7.26342 18.3328 7.27336 18.3826 7.28874ZM22.7755 8.71628C23.5587 8.73211 24.9586 8.79118 25.3281 8.82397C26.0074 8.88429 26.2787 9.02523 26.549 9.4583C26.67 9.65223 27.1802 10.7099 27.1802 10.7669C27.1802 10.8223 27.0781 10.8638 26.9211 10.8721C26.8413 10.8763 26.7622 10.8886 26.7452 10.8993C26.7266 10.9111 26.7688 11.0836 26.8513 11.3342C27.1631 12.28 27.4038 13.7717 27.4789 15.2232L27.4999 15.6307H27.3862H27.2724L27.2808 16.3579L27.2892 17.0852L27.464 17.0946L27.6388 17.1041L27.6583 17.2704C27.669 17.3619 27.6779 17.4972 27.678 17.5711L27.6783 17.7054L27.4837 17.7149L27.2892 17.7245L27.2805 18.1625L27.2719 18.6004L27.4673 18.61L27.6627 18.6195L27.6576 18.728C27.652 18.8478 27.5797 18.9644 27.4484 19.065C27.3655 19.1286 27.3192 19.1313 26.1274 19.1399L24.8922 19.1488L24.8894 18.7243C24.887 18.356 24.8761 18.2694 24.8075 18.07C24.426 16.9606 23.3782 16.3245 22.286 16.5391C21.3545 16.7221 20.591 17.5443 20.4993 18.4631L20.4789 18.6674H16.5957H12.7125L12.6905 18.4562C12.6533 18.0997 12.4983 17.7057 12.2811 17.4156C11.5422 16.4289 10.2552 16.2071 9.24998 16.8934C8.94613 17.1008 8.68421 17.4088 8.51611 17.7564C8.38562 18.0263 8.28675 18.3792 8.28551 18.5795L8.28498 18.6674H7.77621H7.26747L7.21396 18.3877C7.11008 17.8446 6.92795 17.5005 6.54855 17.1307C6.14686 16.7392 5.70844 16.5442 5.13987 16.504C4.45111 16.4553 3.69259 16.8141 3.26893 17.3888C3.03992 17.6995 2.80629 18.3058 2.80629 18.5895C2.80629 18.6674 2.80611 18.6674 2.46288 18.6674C2.05786 18.6674 1.94405 18.6293 1.82881 18.4552L1.74791 18.333L1.74804 17.3095C1.74813 16.3446 1.75168 16.28 1.81001 16.1818C1.84404 16.1245 1.9175 16.0491 1.97331 16.0142C2.07389 15.9511 2.14832 15.9506 10.7208 15.9505L19.3669 15.9504V12.4217C19.3669 9.03517 19.3692 8.89017 19.4245 8.82001C19.4781 8.75208 19.5149 8.74524 19.9459 8.72277C20.3754 8.70043 21.8251 8.6971 22.7755 8.71628ZM20.7563 10.167L20.6743 10.2332V12.021C20.6743 13.7661 20.6758 13.8102 20.7365 13.8726C20.7957 13.9334 20.8406 13.9366 21.6471 13.9369C22.5831 13.9374 22.6018 13.9401 23.1179 14.1526C23.8051 14.4356 24.7884 14.8031 25.188 14.9264C25.3506 14.9766 25.5075 15.0274 25.5366 15.0393C25.5853 15.0592 25.5902 15.0006 25.5988 14.2943C25.6074 13.593 25.6133 13.5218 25.6675 13.4604C25.7073 13.4153 25.7645 13.3931 25.8411 13.3931C25.9726 13.3931 25.9692 13.4343 25.8838 12.8657C25.7404 11.9114 25.477 11.129 25.1069 10.5578C24.7954 10.077 24.9372 10.1038 22.6941 10.1021C20.8628 10.1007 20.8372 10.1016 20.7563 10.167ZM23.0868 16.8461C23.7699 16.9869 24.3474 17.548 24.5516 18.2693C24.6226 18.5202 24.6225 18.9993 24.5514 19.2748C24.3899 19.9009 23.9186 20.4214 23.3143 20.6413C23.1203 20.7118 23.0317 20.7244 22.7132 20.7266C22.2964 20.7295 22.0593 20.6701 21.7327 20.4809C21.4832 20.3364 21.1452 19.974 21.0104 19.7063C20.8356 19.3592 20.7857 19.1486 20.7868 18.7633C20.7877 18.4747 20.8008 18.3895 20.8808 18.1546C20.9319 18.0044 21.0262 17.8003 21.0904 17.7011C21.3471 17.3039 21.7928 16.9799 22.245 16.8619C22.4405 16.8109 22.8761 16.8027 23.0868 16.8461ZM10.8842 16.8442C11.4031 16.9591 11.9092 17.3395 12.17 17.8105C12.4229 18.2672 12.4832 18.894 12.3212 19.3796C12.1144 19.9991 11.6735 20.4487 11.071 20.6545C10.7546 20.7625 10.233 20.7605 9.90412 20.65C9.30218 20.4478 8.80396 19.9051 8.64137 19.2748C8.57049 19 8.57009 18.5526 8.6405 18.2839C8.80742 17.6469 9.30131 17.1121 9.91383 16.905C10.129 16.8323 10.6757 16.798 10.8842 16.8442ZM5.49169 16.8634C6.02527 16.9962 6.50521 17.3974 6.74734 17.913C7.25978 19.0044 6.71782 20.2925 5.59233 20.6582C5.30081 20.753 4.74363 20.7585 4.48725 20.6691C3.86097 20.4509 3.41779 20.0099 3.2039 19.392C3.1116 19.1254 3.10391 18.4865 3.18977 18.2199C3.4162 17.517 3.92538 17.022 4.58649 16.862C4.82905 16.8033 5.25253 16.8039 5.49169 16.8634ZM22.3516 17.7709C21.9164 17.9407 21.6677 18.2985 21.6616 18.7633C21.6576 19.0642 21.7361 19.2724 21.9376 19.496C22.1678 19.7512 22.3488 19.8311 22.6977 19.8316C23.013 19.832 23.1774 19.7679 23.3985 19.5586C23.9653 19.0221 23.799 18.0896 23.0827 17.7871C22.8513 17.6895 22.576 17.6834 22.3516 17.7709ZM10.0547 17.8096C9.84068 17.912 9.6596 18.092 9.55902 18.3023C9.50131 18.423 9.4812 18.5245 9.4728 18.7377C9.46305 18.9843 9.47112 19.0366 9.5443 19.2012C9.73705 19.6347 10.1676 19.891 10.6127 19.8373C10.847 19.809 11.024 19.7231 11.2037 19.5505C11.5814 19.1877 11.6442 18.6438 11.3615 18.1824C11.2601 18.017 11.1486 17.9196 10.9154 17.7929C10.7769 17.7176 10.7305 17.7092 10.4951 17.7169C10.2866 17.7236 10.1933 17.7433 10.0547 17.8096ZM4.60629 17.7961C4.00659 18.0701 3.80369 18.8592 4.19184 19.408C4.65012 20.056 5.64494 19.9557 5.96899 19.2288C6.22754 18.6489 5.95691 17.9923 5.36518 17.7638C5.17016 17.6885 4.80803 17.7039 4.60629 17.7961ZM22.8211 18.4218C22.9421 18.4643 23.0712 18.6353 23.0712 18.7531C23.0712 19.0541 22.7725 19.2379 22.5099 19.0984C22.3364 19.0063 22.2689 18.701 22.3891 18.5522C22.487 18.431 22.6808 18.3725 22.8211 18.4218ZM10.6186 18.4223C10.746 18.4664 10.8687 18.6368 10.8687 18.7697C10.8687 18.9814 10.7004 19.1481 10.4889 19.1458C10.3574 19.1443 10.258 19.087 10.1822 18.969C9.99498 18.6774 10.2896 18.3083 10.6186 18.4223ZM5.15917 18.4255C5.30734 18.4913 5.38999 18.6207 5.38999 18.7868C5.38999 18.9065 5.3729 18.9471 5.28415 19.0382C4.99416 19.336 4.53628 18.9988 4.70506 18.6117C4.7803 18.4391 4.99332 18.3518 5.15917 18.4255Z" fill="#566879"/>
</svg>
