<svg width="28" height="28" viewBox="0 0 28 28" fill="none" xmlns="http://www.w3.org/2000/svg">
<path fill-rule="evenodd" clip-rule="evenodd" d="M7.28226 4.091C6.30246 4.122 5.42364 4.20334 4.62634 4.33684C3.91903 4.45524 3.82391 4.4937 3.70614 4.7087C3.61964 4.86664 3.62757 5.12711 3.72285 5.25806C3.8496 5.43231 3.93105 5.46847 4.19291 5.46679L4.43558 5.46524L4.42011 5.55997C4.41164 5.61206 4.34139 6.03209 4.26406 6.49333C4.18673 6.95458 4.01143 8.00287 3.87448 8.82286L3.62552 10.3138L3.36341 10.3344C2.90489 10.3704 2.59415 10.5088 2.39857 10.7641C2.35278 10.8239 2.17237 11.2404 1.99764 11.6896L1.67997 12.5063L1.93203 12.6346L2.18405 12.7628L2.33078 12.6381C2.71267 12.3135 3.29017 11.9546 3.80357 11.7227C5.68619 10.8725 7.89895 10.9754 9.67958 11.996C11.4332 13.0011 12.6397 14.7106 13.0132 16.7192C13.0765 17.0596 13.0959 17.2746 13.1081 17.7714C13.128 18.5856 13.1025 18.8167 12.882 19.826L12.8667 19.8959H15.8165H18.7663L18.7859 19.4969C18.8362 18.4777 19.1011 17.64 19.6298 16.8283C19.8153 16.5435 20.1929 16.0802 20.3417 15.955C20.4121 15.8958 20.4433 15.8502 20.4236 15.8354C19.2013 14.9134 18.0017 14.3206 16.6646 13.9776L16.3241 13.8902V13.6317C16.3241 13.4189 16.3324 13.3732 16.371 13.3732C16.475 13.3732 17.2739 13.5972 17.686 13.7419C18.7432 14.1132 19.6956 14.6185 20.5182 15.2446C20.6922 15.377 20.8475 15.4853 20.8634 15.4853C20.8793 15.4853 20.989 15.4211 21.1071 15.3428C21.3784 15.1626 21.9268 14.894 22.2379 14.7889C22.564 14.6787 23.0179 14.5871 23.4155 14.5513C24.0208 14.4968 24.8942 14.6152 25.4228 14.8233C25.4785 14.8453 25.4774 14.6259 25.4186 13.9634C25.3418 13.098 25.2259 12.5281 25.0625 12.213C25.0107 12.1129 24.9403 12.0125 24.9061 11.9898C24.8176 11.9312 24.1091 11.6856 23.5576 11.5225C22.0532 11.0776 20.2002 10.7182 18.3443 10.5115L17.7163 10.4415V8.24787C17.7163 6.32089 17.7222 6.03373 17.7651 5.88554C17.83 5.66095 17.9105 5.55177 18.0608 5.48437C18.3133 5.37122 18.4263 5.19079 18.4056 4.93395C18.3832 4.6572 18.218 4.48873 17.9462 4.46559C17.8061 4.45369 17.7484 4.46667 17.578 4.54852C17.3044 4.6799 17.03 4.96783 16.8882 5.27238C16.6893 5.69943 16.6873 5.72934 16.6873 8.16929V10.3604H16.4623C16.2741 10.3604 16.2348 10.3515 16.222 10.306C16.2135 10.2761 16.1027 9.79039 15.9757 9.22665C15.8486 8.6629 15.6021 7.57268 15.4279 6.80394C15.2537 6.03519 15.0888 5.30319 15.0614 5.17731C14.9578 4.7004 14.8799 4.65599 13.8877 4.50811C11.6281 4.17142 9.32861 4.02618 7.28226 4.091ZM9.12081 8.16876C9.12081 9.49529 9.1091 10.5505 9.09427 10.5599C9.07968 10.5691 8.99457 10.554 8.90511 10.5263C8.31565 10.3438 8.40157 10.3504 6.46151 10.3378L4.66481 10.3261L4.68421 10.2268C4.6949 10.1721 4.77204 9.71507 4.85567 9.21112C4.93929 8.70716 5.04008 8.10615 5.07963 7.87552C5.11919 7.6449 5.20739 7.12075 5.27567 6.71076C5.34391 6.30076 5.40729 5.92685 5.41646 5.87989L5.4332 5.79448H7.27699H9.12081V8.16876ZM14.1449 5.80864C14.1449 5.81644 14.2395 6.23923 14.3552 6.74822C14.4708 7.2572 14.7228 8.36923 14.9151 9.21938L15.2648 10.7651V12.7161V14.6672L14.3389 14.6647L13.413 14.6622L13.3448 14.4914C13.2356 14.2181 12.9986 13.7485 12.851 13.513C12.2786 12.5997 11.3383 11.7075 10.379 11.1671L10.1498 11.0381V8.41628V5.79448H12.1474C13.246 5.79448 14.1449 5.80084 14.1449 5.80864ZM5.80986 12.0706C4.48682 12.2282 3.26287 12.8506 2.32397 13.8432C1.58769 14.6217 1.10983 15.4945 0.858317 16.5201C0.515164 17.9192 0.664435 19.3432 1.28867 20.6258C2.11952 22.3331 3.67206 23.5167 5.50514 23.8404C7.05118 24.1134 8.6763 23.7097 9.93617 22.7398C11.0527 21.8802 11.8498 20.6061 12.1347 19.2254C12.4765 17.5695 12.1262 15.8713 11.1567 14.4828C10.9395 14.1718 10.4282 13.6197 10.123 13.3668C9.25903 12.6507 8.21042 12.1997 7.10792 12.0701C6.79725 12.0336 6.11866 12.0339 5.80986 12.0706ZM21.4731 12.217C21.5481 12.298 21.9535 13.3908 21.9535 13.5116C21.9535 13.7169 21.6742 13.8274 21.5379 13.6761C21.4636 13.5934 21.0455 12.5017 21.0455 12.3901C21.0455 12.2194 21.1645 12.1191 21.333 12.1479C21.3828 12.1564 21.4459 12.1875 21.4731 12.217ZM22.6619 12.2007C22.7488 12.2804 23.1742 13.3636 23.1742 13.5053C23.1742 13.7012 22.9235 13.8176 22.7729 13.6916C22.6963 13.6275 22.2562 12.5141 22.2562 12.3844C22.2562 12.1709 22.5061 12.0578 22.6619 12.2007ZM7.14237 14.706C7.74142 14.8329 8.29132 15.1381 8.74252 15.594C9.43557 16.2944 9.76505 17.1568 9.71765 18.1465C9.64768 19.6075 8.6835 20.8266 7.28622 21.2207C7.01434 21.2974 6.94016 21.3051 6.47256 21.3043C6.01624 21.3036 5.92481 21.2944 5.66428 21.223C4.39372 20.875 3.4349 19.7831 3.24801 18.4711C3.19853 18.1239 3.22646 17.4998 3.30603 17.1739C3.52924 16.2599 4.12705 15.4759 4.94659 15.0224C5.42097 14.7599 5.85828 14.6519 6.45742 14.6493C6.74558 14.648 6.94746 14.6648 7.14237 14.706ZM23.3457 15.4733C23.1154 15.5023 22.6282 15.6188 22.4251 15.6934C20.9006 16.253 19.8379 17.6531 19.6829 19.3058C19.566 20.5521 20.0009 21.7784 20.878 22.676C22.0126 23.8371 23.6141 24.2192 25.1314 23.6906C26.1103 23.3496 26.9719 22.5838 27.444 21.6353C27.7866 20.947 27.9001 20.4645 27.9004 19.694C27.9007 19.3014 27.8867 19.0983 27.8459 18.902C27.4834 17.1557 26.2599 15.8967 24.5706 15.5317C24.337 15.4812 23.5721 15.4448 23.3457 15.4733ZM5.93709 15.7508C5.53816 15.8501 5.10563 16.1184 4.81877 16.4446C4.45822 16.8546 4.27644 17.3124 4.25441 17.8662C4.23697 18.3045 4.29515 18.5976 4.47544 18.9796C5.1902 20.494 7.18395 20.7176 8.21514 19.399C8.39725 19.1662 8.51522 18.9344 8.61101 18.6213C8.70523 18.3134 8.71301 17.6557 8.62593 17.3645C8.38795 16.5689 7.78645 15.9647 7.03247 15.7642C6.7599 15.6917 6.20201 15.6849 5.93709 15.7508ZM24.1566 17.7382C24.9268 17.8953 25.5503 18.543 25.6956 19.3368C25.8138 19.983 25.6186 20.6076 25.147 21.0927C24.7617 21.4889 24.3424 21.669 23.7997 21.6714C23.449 21.6729 23.2 21.6111 22.8896 21.4457C22.4597 21.2166 22.1221 20.8197 21.9589 20.3517C21.8463 20.0287 21.8301 19.5073 21.922 19.1628C22.0152 18.8132 22.167 18.5523 22.4349 18.2808C22.9067 17.8026 23.5219 17.6087 24.1566 17.7382Z" fill="#566879"/>
</svg>
