<svg width="29" height="28" viewBox="0 0 29 28" fill="none" xmlns="http://www.w3.org/2000/svg">
<path fill-rule="evenodd" clip-rule="evenodd" d="M25.5784 5.40577V6.02663L25.4406 6.02854C25.3648 6.0296 25.1964 6.03454 25.0665 6.03953C24.6079 6.05713 20.5611 6.11113 19.3307 6.11607L18.0843 6.12109L17.6418 6.9308C17.3984 7.37614 17.0658 7.98342 16.9027 8.28032C16.5091 8.99661 15.4378 10.9534 15.2994 11.2088C15.2391 11.3201 14.9202 11.9031 14.5907 12.5043C14.2612 13.1055 13.9386 13.6946 13.8738 13.8133C13.1203 15.1947 12.3388 16.6223 12.332 16.6301C12.3272 16.6355 12.1544 16.5766 11.9478 16.4993C11.5999 16.369 10.7091 16.0408 8.0281 15.0553C5.68814 14.1952 5.15605 13.9899 4.97976 13.8789C4.76411 13.7432 3.13772 12.6257 2.37052 12.0861C1.35528 11.3719 0.900337 11.0376 0.900337 11.0057C0.900337 10.9448 1.24945 10.4665 2.14608 9.2992L2.37931 8.99556L8.40659 8.99516L14.4339 8.99478L15.0236 7.93579C15.348 7.35336 15.7497 6.63391 15.9162 6.33702L16.2191 5.79721L16.2322 5.29789L16.2454 4.79857L20.9119 4.79174L25.5784 4.78491V5.40577ZM23.0027 6.61461C23.1508 6.69105 23.3044 6.79577 23.3873 6.87682C23.5168 7.00338 23.5311 7.03104 23.6187 7.32216C23.8116 7.96329 24.3237 9.90384 24.5518 10.8579C24.7444 11.6633 24.7702 11.8187 24.7841 12.2557L24.7972 12.6684L25.1152 13.0115C25.29 13.2001 25.5295 13.4569 25.6473 13.5821L25.8615 13.8097L26.2076 13.8307C26.8431 13.8693 27.1477 14.0035 27.237 14.2843C27.2583 14.3512 27.2707 14.8726 27.278 16.013C27.2837 16.9111 27.2982 17.6562 27.3102 17.6688C27.3221 17.6814 27.423 17.7079 27.5342 17.7277C27.7672 17.7694 27.9038 17.8497 28.0189 18.0131C28.1025 18.1318 28.1407 18.3072 28.1143 18.4516C28.0913 18.5778 27.9553 18.7797 27.847 18.8485C27.7345 18.92 27.4564 18.945 26.544 18.9656L25.895 18.9802L25.8671 18.8664C25.5911 17.7423 25.0216 16.8762 24.1741 16.2917C23.4788 15.8122 22.5675 15.5761 21.7374 15.6603C20.978 15.7374 20.4259 15.9365 19.8529 16.34C18.8818 17.0238 18.2012 18.2862 18.2012 19.4039V19.6567H14.5034H10.8056L10.7896 19.3531C10.7714 19.0074 10.687 18.6025 10.5537 18.2208C10.1403 17.0377 9.08713 16.0729 7.85228 15.7461C7.10112 15.5472 6.10762 15.638 5.35221 15.9744C5.23777 16.0253 5.14029 16.067 5.13562 16.067C5.13095 16.067 5.12711 15.6905 5.12711 15.2303C5.12711 14.5348 5.13326 14.3936 5.16353 14.3936C5.196 14.3936 5.98 14.6771 8.19874 15.4912C8.58139 15.6316 9.17799 15.8504 9.52453 15.9774C9.87108 16.1044 10.2137 16.2303 10.2859 16.2572C11.1617 16.5835 12.4453 17.0386 12.473 17.0327C12.4925 17.0286 12.615 16.8308 12.7452 16.5933C13.2918 15.5964 15.961 10.7222 16.0487 10.561C16.1012 10.4645 16.5558 9.63253 17.0589 8.71216C17.5621 7.79179 18.0397 6.91731 18.1204 6.76886L18.267 6.49896L20.5116 6.49316L22.7562 6.48735L23.0027 6.61461ZM19.1201 9.43183V11.0017L20.9775 10.9828C22.9359 10.9629 23.808 10.9344 23.8523 10.8888C23.8705 10.8701 23.8058 10.6251 23.6504 10.1241C23.5246 9.71866 23.3451 9.13794 23.2514 8.83362C23.1577 8.5293 23.0513 8.18618 23.0149 8.07114L22.9488 7.86197H21.0344H19.1201V9.43183ZM22.6118 16.0277C23.7568 16.2419 24.7098 16.9731 25.2203 18.029C25.8002 19.2284 25.6543 20.6877 24.844 21.7941C24.3233 22.505 23.6163 22.9573 22.7135 23.1571C22.4095 23.2244 21.7173 23.2239 21.4041 23.1562C20.6711 22.9977 20.0722 22.665 19.5533 22.1282C19.1631 21.7245 18.9042 21.3156 18.7292 20.8261C18.613 20.5011 18.5673 20.2109 18.5514 19.6972C18.5291 18.9777 18.6129 18.5551 18.8863 18.0079C19.2188 17.3424 19.775 16.7424 20.3588 16.4193C20.7065 16.2268 21.1804 16.0685 21.5701 16.0145C21.8477 15.976 22.371 15.9827 22.6118 16.0277ZM7.22737 16.0044C7.70676 16.0406 8.00883 16.1207 8.42513 16.3223C9.36507 16.7773 10.0888 17.6792 10.3537 18.7256C10.4238 19.0022 10.4499 19.6627 10.4071 20.0775C10.3621 20.5143 10.2923 20.7621 10.1034 21.1547C9.74244 21.9052 9.1771 22.491 8.4744 22.8428C8.10003 23.0302 7.81051 23.1206 7.39185 23.1811C5.52579 23.4505 3.76073 22.0983 3.46074 20.1695C3.37946 19.6469 3.42149 18.9926 3.5657 18.536C3.65202 18.2627 3.85417 17.8253 4.00418 17.5873C4.68073 16.5138 5.91899 15.9056 7.22737 16.0044ZM21.5105 17.2562C20.794 17.3758 19.961 18.1876 19.79 18.9331C19.744 19.1338 19.7358 19.923 19.777 20.1965C19.8506 20.6862 20.322 21.3413 20.8171 21.6419C21.2379 21.8975 21.5677 21.9894 22.0605 21.9885C22.4415 21.9877 22.649 21.9453 22.9876 21.7989C23.7747 21.4586 24.3425 20.6118 24.3892 19.7087C24.4164 19.1831 24.2955 18.7481 23.9885 18.2667C23.662 17.7548 23.0641 17.3285 22.5724 17.2571C22.3438 17.2239 21.7075 17.2234 21.5105 17.2562ZM6.4271 17.2559C5.82965 17.3447 5.06557 17.9753 4.78863 18.6083C4.64783 18.9301 4.61604 19.1136 4.61649 19.6027C4.61693 20.1062 4.65797 20.314 4.82397 20.6528C5.04515 21.1044 5.55247 21.6091 5.98111 21.8039C6.28065 21.9401 6.52749 21.9866 6.96484 21.9891C7.3447 21.9912 7.38697 21.9863 7.60033 21.9144C8.36112 21.658 9.01701 20.9602 9.20747 20.2045C9.26219 19.9875 9.26423 19.2274 9.21075 18.9955C9.07508 18.4072 8.56225 17.7613 7.99302 17.4619C7.72795 17.3224 7.63603 17.2895 7.42304 17.2576C7.20249 17.2246 6.6445 17.2236 6.4271 17.2559ZM22.1563 18.7966C22.4337 18.8302 22.6528 18.9895 22.7679 19.2413C22.8199 19.3551 22.8261 19.4042 22.8171 19.6289C22.8081 19.8516 22.7963 19.9058 22.729 20.0325C22.6862 20.1129 22.6092 20.2133 22.558 20.2555C22.3805 20.4015 21.8969 20.4536 21.6988 20.348C21.5686 20.2786 21.3831 20.0898 21.3259 19.9682C21.2498 19.8066 21.2412 19.3941 21.311 19.2519C21.3693 19.1331 21.5501 18.9372 21.6535 18.8807C21.7859 18.8084 21.9824 18.7755 22.1563 18.7966ZM7.08353 18.7924C7.36434 18.8355 7.58381 19.0348 7.70059 19.353C7.84963 19.7591 7.60595 20.2257 7.17445 20.3604C6.77674 20.4847 6.39228 20.329 6.20875 19.9695C6.14871 19.852 6.1386 19.7991 6.1386 19.6027C6.1386 19.4065 6.14868 19.3538 6.20817 19.2384C6.38296 18.8993 6.70619 18.7346 7.08353 18.7924Z" fill="#566879"/>
</svg>
